<?xml version="1.0" encoding="UTF-8"?>
<svg id="Layer_1" data-name="Layer 1" xmlns="http://www.w3.org/2000/svg" viewBox="159.67 155.31 282.88 199.72">
  <defs>
    <style>
      .cls-1 {
        letter-spacing: -.04em;
      }

      .cls-2 {
        stroke-width: 0px;
      }

      .cls-2, .cls-3 {
        fill: #d5af34;
      }

      .cls-3 {
        font-family: PopularCafeNF, 'Popular Cafe NF';
        font-size: 36.31px;
      }

      .cls-4 {
        letter-spacing: -.01em;
      }
    </style>
  </defs>
  <text class="cls-3" transform="translate(185.52 339.48)"><tspan x="0" y="0">Hair </tspan><tspan class="cls-4" x="77.78" y="0">F</tspan><tspan x="94.63" y="0">or </tspan><tspan class="cls-1" x="147.47" y="0">D</tspan><tspan x="167.91" y="0">a</tspan><tspan class="cls-1" x="185.12" y="0">y</tspan><tspan x="213.63" y="0">s</tspan></text>
  <g>
    <path class="cls-2" d="M181.19,191.81c-1.07,3.22-2.13,5.96-2.9,8.77-2.11,7.67-2.08,15.36.07,23.02,2.59,9.23,7.35,17.19,14.44,23.63,8.91,8.08,19.25,13.35,31.32,14.64,6.38.68,12.64-.14,18.57-2.81.25-.11.52-.2.83-.31-3.85,5.9-17.58,15.04-31.71,15.41-12.89.34-23.71-4.28-32.79-13.34,1.43,2.62,3.38,4.78,5.59,6.69,6.41,5.56,13.93,8.56,22.35,9.17,12.55.91,23.46-3.34,33.23-10.96,4.64-3.62,8.45-8.01,11.93-12.71,1.07-1.44,2.16-2.86,3.01-4.58-.35.24-.72.45-1.05.72-4.22,3.46-8.79,6.2-14.14,7.6-4.93,1.29-9.69.85-14.41-.81-1.64-.58-3.39-1-4.99-2.6,1.39.45,2.39.79,3.41,1.1,8.57,2.56,16.48,1.01,23.88-3.82,5.03-3.28,9.28-7.51,13.88-11.32,2.32-1.92,4.86-3.58,7.35-5.27.87-.59,1.9-.94,2.99-1.24-6.07,4.49-9.77,10.84-13.91,16.84l.29.37c.6-.42,1.26-.78,1.8-1.26,4.01-3.61,8.03-7.21,11.97-10.89,4.63-4.32,9.31-8.6,13.74-13.13,4.28-4.37,8.32-9,11.52-14.24,1.64-2.68,2.86-5.63,4.14-8.52,4.17-9.43,10.24-17.34,18.75-23.2,5.76-3.97,12.32-6.28,19.21-7.31,5.44-.81,10.65-2.34,15.91-3.78,17.44-4.77,33.98-2.64,49.28,7.14,13.36,8.55,22.36,20.58,27.09,35.7,3.17,10.14,3.81,20.5,1.48,30.91-2.15,9.58-6.04,18.4-12.68,25.91.3-.7.61-1.4.9-2.1.3-.73.56-1.48.86-2.21,4.19-10.55,4.38-21.16.42-31.82-3.7-9.96-10.15-17.79-18.72-23.97-6.85-4.94-14.48-8-22.83-9.06-7.03-.89-13.94-.13-20.52,2.73-.69.3-1.4.59-2.31.55,1.2-1.1,2.4-2.2,3.6-3.3,5.22-4.76,11.09-8.49,17.77-10.81,6.79-2.36,13.77-2.96,20.86-1.63,7.75,1.46,14.55,4.85,20.3,10.29.29.27.61.5.92.75.11-.09.22-.18.34-.27-.66-.88-1.27-1.8-2-2.62-5.34-5.97-12.12-9.5-19.88-10.9-12.71-2.29-24.05,1.37-34.39,8.69-4.97,3.52-9.42,7.59-13.02,12.53-1.72,2.36-3.29,4.83-4.92,7.26.12.11.24.22.36.33,1.2-.92,2.4-1.85,3.61-2.75,5.8-4.28,12.18-6.7,19.51-6.22,2.98.2,6.73,1.3,9.42,2.94-2.16-.45-4.06-.92-5.98-1.23-5.97-.94-11.4.76-16.58,3.52-5.09,2.71-9.11,6.75-13.28,10.63-3.58,3.33-7.28,6.53-11.02,9.68-1.11.93-2.52,1.5-3.95,2.04,6.39-5.49,10.64-12.52,14.86-19.59-3.51,2.63-6.71,5.57-9.74,8.71-5.35,5.55-10.69,11.1-16.08,16.61-4.99,5.12-9.59,10.56-13.33,16.66-1.88,3.06-3.5,6.28-5.26,9.42-3.29,5.88-7.15,11.33-12.07,15.97-5.84,5.51-12.74,9.1-20.65,10.57-3.53.66-7.13.93-10.69,1.43-1.13.16-2.27.38-3.35.74-6.74,2.23-13.64,3.61-20.74,3.72-8.2.12-16.21-1.12-23.88-4.15-8.98-3.55-16.69-8.97-23.3-15.97-8.24-8.72-13.76-18.95-16.51-30.61-.79-3.34-1.22-6.81-1.36-10.24-.43-10.43,1.13-20.5,5.76-30,1.77-3.64,3.68-7.16,6.15-10.37.3-.39.65-.76,1.25-1.45ZM298.25,217.47l.53-1c-.59.22-1.26.46-.59,1.07-.45.53-.64,1.09-.34,1.73.37-.56,1.2-1.03.4-1.79ZM341.08,202.37c.51-.84,1.29-1.6.79-2.73-1.5,1.11-2.73,2.43-3.25,4.29-.15.14-.3.27-.46.41-2.03,2.59-4.13,5.14-6.07,7.79-2.03,2.78-3.91,5.68-5.87,8.52-1.12,1.63-2.28,3.23-3.42,4.84.56-.03.89-.25,1.14-.54,1.9-2.25,3.77-4.53,5.67-6.77.45-.53.93-1.31,1.5-1.42.87-.17,1.18-.71,1.58-1.28,2.54-3.65,5.1-7.29,7.04-11.3.36-.52.73-1.04,1.09-1.56l.06-.19.2-.04ZM373.59,182.7c.28-.25.55-.49,1.14-1.02q-1.14.46-1.26.98c-2.35.85-4.63,1.78-6.73,3.21-3.45,2.34-6.91,4.64-9.52,7.96-.21.26-.3.62-.44.94,5.95-4.94,12.28-9.12,19.1-12.6-.76.17-1.52.35-2.28.52ZM318.06,208.52c.13-.97.06-2.01.41-2.89,1.79-4.49,3.93-8.81,6.66-12.82.67-.98,1.25-2.02,1.88-3.03-.14-.1-.28-.2-.42-.3-.74.9-1.53,1.77-2.23,2.71-3.37,4.53-6.02,9.48-8.17,14.68-1.29,3.12-2.35,6.33-3.49,9.51-.25.71-.56,1.49.31,2.2.24-.4.49-.75.67-1.13,1.16-2.39,2.31-4.78,3.47-7.17.3-.59.61-1.18.91-1.77ZM259.08,263.42c-.49.41-.97.82-1.46,1.23.12.11.24.21.36.32l1.02-1.63c.45-.33.98-.59,1.33-1.01,1.53-1.81,2.99-3.67,4.49-5.5.45-.55.95-1.07,1.41-1.62.82-.97,1.65-1.92,2.41-2.94.51-.69.84-1.51,1.36-2.19,3.43-4.52,6.88-9.01,10.32-13.52.22-.29.36-.65.54-.98-.11-.09-.22-.19-.33-.28-1.82,1.57-3.79,3-5.42,4.74-2.11,2.25-4.1,4.63-5.87,7.15-3.42,4.87-6.65,9.88-9.92,14.85-.23.36-.18.9-.26,1.36ZM185.77,248.47c.51.16,1.1.22,1.52.51,2.72,1.88,5.38,3.85,8.11,5.71,2.82,1.93,2.84,1.9,4.16,2.05-3.23-2.68-6.68-5.37-9.93-8.28-3.24-2.9-5.58-6.58-8-10.17-.15.09-.29.17-.44.26.73,1.45,1.46,2.9,2.19,4.35-.16.08-.32.16-.47.25-2.78-2.75-4.1-6.46-6.25-9.9.51,2.88,1.34,5.44,2.55,7.86,2.64,5.26,6.58,9.54,10.52,13.82.23.25.57.45.9.58,1.14.47,2.3.91,3.85,1.52-.9-.82-1.48-1.34-2.05-1.88-1.61-1.54-3.24-3.06-4.82-4.63-.65-.65-1.21-1.39-1.81-2.1,0,0-.02.04-.02.04ZM314.88,196.57c-.1-.06-.2-.11-.3-.17-.48.59-.99,1.16-1.43,1.78-3.21,4.57-5.65,9.57-7.25,14.88-2.77,9.15-5.3,18.37-7.86,27.58-2.25,8.07-5.11,15.88-9.37,23.13-.52.89-.98,1.83-1.46,2.74.77-.33,1.35-.78,1.71-1.36,1.91-3.13,4.06-6.15,5.58-9.47,4.5-9.77,7.39-20.1,9.98-30.5,2.39-9.6,5.56-18.88,10.06-27.71.15-.29.23-.6.34-.91ZM265.27,286.01c9.87,1.27,29.26-13.52,32.02-24.38-8.95,10.29-20.69,16.92-32.02,24.38ZM337.16,174.79c-10.9-.06-27.95,14.05-31.42,26.05,8.76-10.69,20.08-18.29,31.42-26.05ZM275.6,271.62c6.4-5.05,14.98-23.07,14.39-26.87-1.45,2.57-3.04,4.76-3.98,7.19-1.64,4.23-3.31,8.42-5.72,12.28-1.54,2.48-3.13,4.94-4.7,7.4ZM225.61,277.38c1.79.75,3.09.41,4.03-.63.59-.65,1.05-.99,1.93-.92.52.04,1.11-.11,1.6-.33,1.18-.52,2.33-1.11,3.47-1.72,4.98-2.64,8.85-6.56,12.43-10.81.27-.32.48-.69.71-1.03-7.23,6.3-14.74,12-24.16,15.43ZM349.18,198.65c.09.03.18.06.27.1,2.75-3.18,5.37-6.49,8.29-9.51,2.96-3.06,6.23-5.82,9.36-8.71-1.39.5-2.77,1.11-3.93,2-5.04,3.87-9.69,8.15-13.08,13.6-.46.74-.61,1.68-.91,2.52ZM422.96,220.02c.13-.09.26-.18.38-.27-.6-1.59-1.08-3.23-1.83-4.74-.64-1.28-1.53-2.44-2.41-3.57-2.02-2.61-4.08-5.2-6.17-7.75-1.33-1.62-2.92-2.2-4.81-1.7,3.68,2.53,6.54,5.63,9.07,9.05.33.45.63.93.93,1.41,1.62,2.53,3.23,5.06,4.85,7.58ZM237.5,277.74c7.58-3.9,13.47-9.41,16.83-17.35-5.19,6.2-10.2,12.57-16.83,17.35ZM341.84,195.93c-3.32,2.02-14.45,14.69-15.25,17.76.72-.67,1.15-1.07,1.59-1.47,2.21-2.03,3.4-5.1,6.42-6.31.17-.07.24-.35.37-.52,2.31-3.18,4.61-6.35,6.87-9.46ZM276.81,247.68c-5.52,4.98-10.41,10.54-14.9,16.46,3.53-2.2,13.23-12.82,14.9-16.46ZM418.04,214.45c-1.48-3.32-8.86-9.5-11.76-10.11,3.79,3.26,7.61,6.53,11.76,10.11ZM356.35,195.57c-1.62.72-2.09,1.22-2.58,2.48.71-.69,1.56-1.5,2.58-2.48ZM179.87,234.88c-.1.05-.2.09-.3.14.22.54.44,1.09.66,1.63.14-.06.27-.12.41-.18-.26-.53-.51-1.06-.77-1.59ZM335.98,198.35c.07.09.14.18.21.27.39-.32.78-.65,1.17-.97-.06-.08-.12-.15-.18-.23-.4.31-.8.62-1.2.93ZM282.27,233.71c.09.07.17.14.26.22.3-.36.59-.71.89-1.07-.08-.07-.16-.13-.24-.2-.3.35-.61.7-.91,1.05ZM258.83,278.71l.13.26c.3-.27.6-.54.89-.81-.05-.06-.1-.12-.16-.18-.29.24-.58.49-.87.73Z"/>
    <path class="cls-2" d="M316.89,272.87c.61.32,1.23.61,1.82.96,6.93,4.12,14.28,7.12,22.29,8.29,4.58.67,9.21.72,13.79,0,14.18-2.22,25.44-9.52,34.63-20.26,5.09-5.94,9.33-12.43,12.21-19.74,1.29-3.26,2.16-6.65,2.84-10.2.21,1.32.51,2.63.63,3.96,1.46,17.02-3.21,31.94-15.59,44-6.64,6.47-14.76,10.13-23.94,11.49-8.08,1.19-15.75-.4-23.19-3.41-2.26-.91-4.44-2.04-6.66-3.06-.36-.17-.75-.29-1.25-.21.17.19.31.42.51.57,7.6,5.8,16,9.43,25.73,9.09,10.25-.35,19.42-3.73,27.42-10.2,6.19-5.02,11.15-11,14.53-18.26,2.98-6.41,4.61-13.16,5.2-20.16,1.03-12.19-2.15-23.4-8.46-33.74-1.49-2.44-3.54-4.52-5.34-6.77-.25-.32-.54-.61-.6-1.25,1.75.91,3.57,1.72,5.25,2.75,11.28,6.92,19.51,16.26,22.99,29.3,2.57,9.65,1.76,19.07-1.9,28.34-3.38,8.59-9.32,14.93-16.86,19.95-6.69,4.46-14.19,6.87-21.93,8.72-3.7.88-7.35,2.01-11.07,2.83-10.28,2.27-20.22,1.19-29.56-3.75-2.97-1.57-5.77-3.57-8.37-5.71-4.95-4.07-9.69-8.38-14.53-12.59-.26-.22-.58-.38-.87-.56.1-.13.2-.27.29-.4ZM380.14,276.26c-.71.35-1.43.66-2.11,1.04-3.02,1.66-5.94,3.46-9.42,4.15-1.73.35-3.34,1.31-5.34,2.14.61.08.83.16,1.02.13,5.42-.9,10.3-3.12,14.82-6.2.43-.29.67-.87,1-1.31.43-.21.86-.42,1.3-.63-.14-.18-.27-.35-.41-.53-.28.4-.56.8-.84,1.21ZM400.59,280.92c7.08-5.1,12.55-11.41,14.4-20.71-.87,1.71-1.52,3.06-2.23,4.36-1.23,2.27-2.67,4.44-3.71,6.79-.66,1.5-1.51,2.69-2.68,3.79-1.98,1.86-3.86,3.83-5.78,5.76ZM399.64,278.82c6.29-4.99,9.34-11.73,10.5-19.47-2.5,7.02-5.4,13.83-10.5,19.47ZM369.73,284.05c2.09.03,4.77-1.22,5.67-2.76-2.15,1.05-3.91,1.9-5.67,2.76Z"/>
    <path class="cls-2" d="M283.26,187.98c-.96-.61-1.92-1.23-2.88-1.83-10.3-6.39-21.47-8.73-33.49-7.28-8.79,1.06-16.58,4.5-23.7,9.66-10.44,7.58-17.62,17.67-22.58,29.43-.88,2.09-1.16,4.43-1.69,6.67-.18.75-.27,1.52-.4,2.28-.15,0-.3-.01-.45-.02-.25-2.98-.73-5.95-.73-8.93.01-11.45,2.81-22.08,9.71-31.41,6.65-9,15.39-14.8,26.41-16.97,7.07-1.39,14.03-.81,20.87,1.46,5.02,1.66,9.71,3.97,14.21,6.69.67.41,1.35.8,2.24,1.02-.4-.41-.77-.85-1.19-1.24-4.44-4.08-9.33-7.43-15.13-9.33-7.35-2.4-14.75-2.79-22.35-1.13-11.37,2.49-20.32,8.67-27.2,17.82-5.69,7.57-8.83,16.23-9.86,25.68-.98,8.98.28,17.62,3.16,26.14,1.96,5.8,4.7,11.12,8.68,15.77.64.75,1.56,1.25,2.35,1.87-.16.19-.32.39-.47.58-1.48-.79-2.98-1.53-4.42-2.38-10.14-5.94-17.78-14.09-22-25.2-4.42-11.66-4.38-23.32.82-34.65,4.38-9.55,11.7-16.46,21.15-21.07,6.34-3.09,13.07-4.71,20.06-5.56,2.91-.35,5.74-1.33,8.64-1.84,13.74-2.42,26.06.78,36.6,9.93,4.88,4.24,9.33,8.98,13.97,13.49-.11.12-.23.23-.34.35ZM205.71,176.31c-1.13.74-2.4,1.34-3.37,2.25-1.51,1.42-3.01,2.93-4.16,4.64-1.68,2.49-3.43,5.06-4.45,7.84-1.12,3.06-1.47,6.41-2.11,9.65-.1.51.06,1.07.1,1.6.98-1.98,1.79-3.98,2.3-6.05,1.74-7.03,5.16-13.05,10.44-18.02.54-.51.81-1.29,1.22-1.94.8.12,1.41-.15,1.73-.99-.57.34-1.13.68-1.7,1.01ZM187.06,194.14c.35-.39.7-.78,1.05-1.17-1.63,4.43-2.97,8.85-2.49,13.15.91-3.01,1.74-6.5,3.01-9.83,2.13-5.62,5.15-10.73,9.66-14.85,1.65-1.51,3.3-3.05,4.46-5.18-4.13,2.41-7.3,5.67-10.28,9.38-.13-.56-.18-.8-.29-1.25-2.16,2.56-3.93,5.14-5.36,7.96-.31.61-.51,1.2.25,1.79ZM245.34,176.09c-5.93,0-11.69,1.03-17.25,3.11-1.68.63-3.13,1.66-4.84,3.24,1.07,0,1.69.11,2.24-.03.9-.23,1.78-.57,2.62-.96,5.49-2.55,11.17-4.5,17.23-5.37ZM222.87,176.41c2.53-.89,4.84-1.86,7.24-2.51,2.41-.66,4.89-1.11,7.37-1.45,2.4-.33,4.83-.4,7.5-.6-3.76-.49-7.24-.74-10.76-.09-3.47.64-6.88,1.47-10.1,2.95-.58.27-1.49.34-1.26,1.7ZM220.63,181.27c.17.18.35.36.52.54,5.05-2.96,10.33-5.36,15.97-6.93-3.69.35-7.24,1.23-10.62,2.66-1.71.73-3.34,1.67-4.96,2.59-.4.23-.62.76-.92,1.15ZM193.46,182.79c.12.11.25.22.37.33l.89-1.11c-.07-.06-.15-.12-.22-.18-.35.32-.69.64-1.04.96Z"/>
    <path class="cls-2" d="M312.5,247.6c4.42-4.7,8.64-9.18,12.99-13.81.84.79,1.47,1.35,2.06,1.95,6.14,6.18,12.34,12.31,19.57,17.25,5.74,3.92,11.85,7.09,18.8,8.3,8.44,1.48,16.31.06,23.58-4.55.18-.11.36-.21.96-.55-.64,1.44-1.39,2.35-2.11,3.23-7.95,9.7-17.87,16.41-30.11,19.42-7.86,1.93-15.73,1.53-23.49-.62-9.51-2.63-18.36-6.68-26.13-12.86-1.45-1.16-2.73-2.54-4.2-3.92,1.76-4.09,3.97-7.84,6.82-11.52.57.59,1.08,1.14,1.6,1.68,8.77,9.21,19.03,15.99,31.44,19.2,2.49.64,5.1.85,7.66,1.22.61.09,1.24.01,1.92-.18-16.87-2.72-29.68-12.17-41.34-24.25ZM337.83,250.13c-.23-.27-.45-.55-.7-.8-.7-.69-1.23-.58-1.53.38.16.15.33.3.49.45.39.3.79.6,1.18.89,2.39,1.78,4.74,3.63,7.2,5.31.77.53,1.84.61,2.78.9,1.23,1.84,3.39,2.98,6.42,3.18-2.42-1.17-4.45-2.15-6.48-3.12-1.42-1.15-2.8-2.35-4.25-3.45-1.61-1.23-3.29-2.39-4.94-3.57-.07-.04-.13-.1-.18-.16ZM347.91,276.2c-6.03-1.89-12.18-3.82-18.47-5.79,5.3,3.76,13.35,6.34,18.47,5.79ZM342.5,260.55c-3.69-2.84-7.38-5.67-11.06-8.5,1.55,4.46,5.59,6.14,9.11,8.4.58.37,1.23.84,1.96.1Z"/>
    <path class="cls-2" d="M211.94,202.9c1.7-1.92,3.25-3.86,5.01-5.59,3.44-3.38,7.09-6.54,11.24-9.04,6.12-3.7,12.73-5.87,19.85-6.69,7.21-.83,14.21-.07,21.07,2.19,5.37,1.77,10.24,4.5,14.83,7.78,4.99,3.56,9.69,7.45,13.86,11.88-.57,2.67-3.31,7.05-7.08,11.28-4.02-4.28-8.05-8.56-12.89-11.91-4.78-3.31-9.88-6.02-15.52-7.67,10.5,5.3,19.02,12.98,26.77,21.9-3.53,4.68-7.69,8.57-12.02,12.22-2.04-1.98-3.96-3.81-5.84-5.68-5.29-5.29-10.48-10.71-16.45-15.27-6.13-4.68-12.75-8.33-20.5-9.53-7.66-1.19-14.9-.14-21.52,4.12-.12.08-.25.14-.38.18-.05.02-.12-.05-.46-.19ZM286.39,198.85c-1.99-5.4-20.38-15.4-29.06-14.42,4.77,1.8,9.9,3.65,14.96,5.69,5.07,2.04,9.4,5.4,14.11,8.73ZM272.2,209.61c-4.97-5.41-10.92-9.44-17.7-12.26-1.82-.76-3.68-1.62-5.81-1.46.48.59,1.05.94,1.66,1.21,5.88,2.6,11.5,5.64,16.51,9.71,1.23,1,2.45,2.01,3.67,3.02.56.46,1.1.72,1.68-.22ZM272.26,195.39c.09-.08.19-.16.28-.24-.72-.74-1.32-1.7-2.18-2.19-4.54-2.61-9.55-3.89-14.68-4.69-2.1-.32-4.24-.36-6.4-.53,0,1.37.78,1.48,1.61,1.5,3.92.11,7.64,1.25,11.32,2.42,3.4,1.08,6.7,2.47,10.05,3.72ZM264.8,188.74c.48.26.94.58,1.45.77,2.53.92,4.85,2.14,6.52,4.36.21.27.55.45.85.65,2.21,1.47,4.42,2.94,6.65,4.38.63.41,1.32.73,2.2,1.2-.69-2.03-1.55-2.81-7.09-6.65-4.06-2.82-8.76-5.08-10.58-4.71ZM260.6,198.41c.07-.15.15-.3.22-.44-.76-.37-1.52-.74-2.28-1.1-.05.11-.11.22-.16.33.74.41,1.48.81,2.23,1.22ZM265.39,200.91c.04-.07.09-.15.13-.22-.14-.12-.26-.28-.42-.35-.19-.1-.42-.13-.63-.19-.03.1-.06.2-.09.29.34.16.68.32,1.01.47ZM271.31,206.28c-.22-.53-.24-.76-.37-.85-.16-.11-.4-.11-.61-.16-.04.1-.07.19-.11.29.26.17.52.35,1.08.72Z"/>
    <path class="cls-2" d="M339.74,204.16c-1.05,1.28-2.09,2.57-3.14,3.85-.08-.06-.16-.12-.24-.18.6-1.17,1.21-2.33,1.81-3.5.15-.14.31-.27.46-.41.73-.44,1.47-.88,2.2-1.32-.36.52-.73,1.04-1.09,1.56Z"/>
    <path class="cls-2" d="M317.15,210.29c-.49-1.02-.11-2,.84-2.16,0,0,.06.24.08.38-.31.6-.62,1.19-.92,1.78Z"/>
    <path class="cls-2" d="M338,250.29c-.63-.04-1.27-.08-1.91-.12-.17-.16-.33-.31-.5-.46.74.14,1.48.28,2.23.42.05.07.11.12.18.16Z"/>
  </g>
</svg>