<?xml version="1.0" standalone="no"?>
<!DOCTYPE svg PUBLIC "-//W3C//DTD SVG 20010904//EN"
 "http://www.w3.org/TR/2001/REC-SVG-20010904/DTD/svg10.dtd">
<svg version="1.0" xmlns="http://www.w3.org/2000/svg"
 width="1959.000000pt" height="1737.000000pt" viewBox="0 0 1959.000000 1737.000000"
 preserveAspectRatio="xMidYMid meet">
<metadata>
Created by potrace 1.16, written by Peter Selinger 2001-2019
</metadata>
<g transform="translate(0.000000,1737.000000) scale(0.100000,-0.100000)"
fill="#5c3a1e" stroke="none">
<path d="M9675 17121 c-17 -10 -38 -29 -47 -42 -23 -36 -65 -157 -79 -230 -16
-86 -52 -155 -90 -174 -22 -12 -69 -17 -172 -21 -240 -7 -289 -13 -380 -43
-50 -17 -169 -43 -279 -60 -106 -17 -209 -35 -228 -41 -19 -5 -100 -19 -180
-30 -80 -12 -172 -28 -205 -36 -70 -18 -445 -90 -542 -104 -38 -5 -158 -14
-268 -20 -239 -12 -313 -22 -465 -62 -140 -36 -398 -122 -462 -155 -63 -31
-147 -52 -184 -46 -16 3 -60 14 -99 26 -95 28 -213 27 -320 -5 -113 -34 -181
-76 -438 -275 -52 -40 -107 -78 -123 -85 -18 -8 -74 -13 -149 -13 -219 -1
-276 -24 -401 -161 -87 -96 -155 -197 -213 -320 -21 -44 -51 -90 -66 -102 -55
-43 -111 -23 -164 59 -40 64 -139 156 -177 165 -13 3 -31 1 -39 -6 -11 -10 -6
-21 36 -73 28 -34 71 -104 95 -155 l45 -93 -2 -107 c-1 -59 -8 -145 -16 -191
-23 -137 -8 -198 29 -120 21 42 35 104 50 219 16 132 30 174 56 178 12 2 23 0
23 -5 8 -51 4 -203 -7 -256 -13 -70 -88 -252 -108 -265 -38 -25 -95 -145 -121
-257 -8 -38 -62 -145 -82 -165 -13 -13 -14 -11 -8 20 4 19 20 64 35 100 42 98
58 157 65 240 6 74 6 76 -27 120 -108 147 -148 273 -148 464 0 80 23 231 42
272 14 30 1 64 -24 64 -11 0 -36 -17 -54 -37 -52 -57 -71 -118 -115 -366 -17
-100 -35 -116 -137 -128 -112 -12 -156 -32 -198 -88 -35 -45 -36 -47 -29 -111
4 -36 8 -112 9 -170 1 -121 -17 -174 -60 -183 -21 -4 -30 4 -60 49 -28 41 -49
60 -96 84 -63 31 -128 40 -128 17 0 -7 7 -22 15 -35 105 -148 157 -352 160
-620 1 -84 -2 -155 -7 -158 -4 -3 -2 -13 4 -24 10 -15 9 -22 -4 -37 -9 -10
-28 -43 -43 -73 -15 -30 -37 -66 -50 -80 -19 -22 -42 -82 -61 -163 -3 -15 -10
-30 -15 -33 -5 -3 -9 -14 -9 -24 0 -39 -57 -153 -120 -240 -60 -84 -71 -117
-75 -220 -2 -47 -13 -139 -24 -204 -17 -94 -19 -121 -9 -127 16 -10 20 -6 52
55 15 27 36 63 49 80 12 17 28 42 35 56 21 44 91 151 130 199 33 40 65 87 97
143 9 16 121 164 164 218 11 14 45 57 76 95 108 136 140 176 173 214 17 21 32
43 32 49 0 6 8 19 18 29 38 36 113 135 133 174 31 62 57 155 68 248 l11 85
-94 93 c-115 115 -170 216 -205 378 -19 92 -45 274 -39 280 9 9 104 -60 171
-124 132 -126 227 -327 227 -482 0 -75 -17 -222 -30 -259 -20 -57 -22 -90 -6
-90 8 0 23 12 33 26 45 64 121 149 245 274 73 74 142 152 153 173 11 20 27 37
36 37 21 0 77 28 86 44 5 7 19 20 32 29 14 9 52 43 85 75 34 32 93 85 131 119
39 33 95 83 125 112 30 29 71 63 90 75 95 63 287 235 313 282 25 44 93 167
111 201 10 19 22 71 27 116 5 45 14 102 21 127 11 40 57 148 76 176 4 6 16 24
26 40 29 43 235 244 251 244 12 0 42 22 133 96 43 35 55 21 46 -56 -37 -323
-209 -604 -440 -721 -55 -27 -98 -57 -121 -83 -45 -53 -67 -96 -56 -107 11
-11 43 -1 43 12 0 12 126 94 160 104 14 4 27 11 30 15 8 12 168 120 178 120 4
0 36 18 70 40 33 22 64 40 68 40 3 0 39 19 78 43 39 24 107 60 151 82 106 52
135 77 161 140 31 77 122 193 201 256 96 77 206 148 261 168 26 10 70 27 97
38 63 25 142 48 220 63 33 6 78 16 100 21 22 5 175 11 340 13 l300 4 120 32
c201 53 250 65 455 105 203 40 290 53 559 84 104 12 159 7 168 -17 10 -25 -12
-47 -48 -48 -100 -3 -488 -58 -669 -95 -52 -11 -129 -26 -170 -34 -41 -8 -106
-23 -145 -33 -38 -11 -106 -27 -150 -37 -193 -41 -175 -30 -449 -279 -131
-119 -259 -219 -344 -269 -95 -56 -221 -112 -287 -128 -28 -6 -61 -16 -75 -22
-48 -19 -176 -25 -310 -16 -229 16 -221 18 -353 -52 -9 -5 -65 -34 -122 -64
-58 -30 -136 -74 -173 -98 -37 -24 -78 -48 -91 -52 -13 -4 -49 -25 -80 -46
-31 -22 -59 -39 -63 -39 -5 0 -16 -7 -25 -16 -27 -23 -83 -60 -133 -88 -41
-22 -142 -95 -180 -129 -29 -27 -128 -113 -186 -162 -141 -120 -138 -136 17
-105 52 11 130 29 174 41 44 12 110 27 146 33 56 11 75 20 127 64 82 67 140
96 257 122 84 20 114 22 228 17 113 -5 146 -10 226 -38 104 -35 175 -69 176
-83 0 -5 -18 -19 -40 -31 -123 -68 -155 -83 -210 -97 -33 -9 -80 -22 -104 -28
-63 -17 -333 -25 -411 -12 -36 5 -89 21 -118 34 -49 23 -57 24 -112 12 -32 -6
-78 -19 -102 -27 -24 -9 -79 -23 -123 -32 -44 -10 -93 -21 -110 -26 -70 -19
-121 -21 -134 -5 -19 22 -24 21 -84 -21 -168 -117 -727 -650 -727 -694 0 -26
29 -25 88 5 26 13 92 40 147 61 122 46 153 69 201 143 56 85 124 147 212 190
41 20 73 30 207 62 50 12 124 33 165 46 212 66 334 77 490 43 94 -20 259 -92
267 -115 5 -14 -132 -65 -254 -94 -104 -26 -265 -29 -358 -7 -59 14 -132 55
-169 96 -24 27 -38 26 -106 -2 -80 -33 -112 -52 -139 -81 -13 -13 -65 -46
-117 -72 -92 -47 -144 -85 -144 -106 0 -13 47 -5 93 16 56 24 70 27 187 37
116 9 184 3 280 -25 25 -8 65 -19 90 -26 25 -7 71 -24 103 -38 86 -37 78 -52
-45 -91 -57 -18 -116 -37 -133 -43 -61 -20 -212 -48 -260 -48 -61 0 -222 24
-290 44 -27 7 -72 25 -99 40 -27 14 -53 26 -59 26 -31 0 -367 -151 -404 -182
-9 -7 -27 -17 -40 -23 -35 -15 -169 -142 -210 -199 -21 -28 -55 -69 -78 -92
-22 -22 -47 -51 -55 -64 -8 -13 -32 -43 -53 -68 -21 -25 -58 -75 -82 -111 -24
-37 -57 -80 -74 -96 -17 -17 -31 -34 -31 -39 0 -4 -18 -30 -40 -56 -22 -26
-40 -51 -40 -56 0 -4 -6 -15 -14 -23 -7 -9 -17 -26 -20 -38 -9 -28 12 -31 52
-8 33 19 155 69 242 99 150 54 178 65 247 100 52 25 80 47 97 74 39 58 75 88
161 130 193 96 465 108 679 30 64 -24 62 -29 -34 -99 -97 -70 -211 -118 -355
-151 -76 -17 -122 -20 -300 -20 l-209 1 -91 -35 c-49 -19 -115 -46 -145 -59
-30 -13 -84 -35 -120 -50 -93 -38 -95 -39 -202 -89 -56 -26 -104 -56 -115 -71
-10 -14 -48 -65 -85 -113 -79 -104 -204 -303 -242 -386 -32 -71 -24 -87 31
-61 102 46 221 109 269 141 66 44 170 162 182 208 20 72 92 159 211 256 24 19
63 52 88 72 49 42 82 62 90 55 2 -3 -10 -19 -28 -36 -24 -23 -30 -34 -21 -43
8 -8 23 -5 57 11 26 12 84 33 129 47 44 14 91 30 104 35 55 22 354 0 412 -31
46 -24 13 -50 -90 -70 -25 -5 -90 -19 -145 -30 -90 -20 -122 -21 -312 -17
l-212 4 -38 -26 c-21 -14 -73 -62 -115 -106 -77 -80 -107 -128 -87 -140 12 -8
80 2 139 20 179 56 193 59 321 58 104 -1 137 -5 188 -23 33 -13 61 -28 61 -35
0 -20 -94 -90 -163 -123 -102 -48 -134 -62 -145 -62 -6 0 -23 -6 -39 -14 -73
-37 -328 -49 -436 -21 -64 17 -75 14 -137 -30 -62 -45 -216 -133 -265 -152
-22 -8 -57 -17 -77 -20 -37 -5 -51 -16 -74 -57 -29 -49 -242 -485 -259 -526
-9 -25 -30 -74 -45 -110 -16 -36 -31 -76 -35 -89 -4 -14 -16 -38 -26 -55 -43
-71 -6 -90 51 -27 19 22 53 54 75 71 145 112 185 155 231 245 20 38 56 98 80
132 23 34 50 78 59 97 38 79 175 202 175 156 0 -10 -72 -126 -93 -150 -7 -8
-25 -35 -39 -60 -15 -25 -45 -66 -67 -90 -23 -25 -41 -51 -41 -57 0 -19 34
-16 83 7 113 52 432 85 496 50 38 -20 25 -47 -52 -107 -40 -32 -90 -67 -112
-77 -22 -10 -51 -25 -65 -32 -83 -41 -249 -58 -410 -41 l-75 8 -100 -87 c-55
-47 -131 -111 -168 -141 -53 -43 -74 -68 -97 -117 -17 -35 -30 -68 -30 -74 0
-7 -4 -12 -9 -12 -5 0 -11 -17 -15 -38 -3 -22 -21 -77 -39 -123 -19 -46 -53
-145 -76 -219 -24 -74 -49 -147 -57 -162 -8 -14 -14 -35 -14 -47 0 -27 -31
-42 -68 -35 -30 6 -30 7 -25 61 3 29 1 71 -5 91 -42 151 -56 183 -84 207 -16
14 -34 25 -39 25 -6 0 -35 24 -66 53 -63 59 -101 128 -133 245 -12 42 -26 90
-31 106 -5 16 -9 43 -9 61 0 17 -7 40 -15 51 -15 19 -15 18 -36 -6 -18 -22
-21 -34 -16 -93 3 -53 13 -85 45 -150 23 -45 50 -102 60 -127 11 -25 46 -72
77 -105 133 -140 152 -174 161 -292 8 -108 26 -154 80 -198 57 -47 78 -78 69
-105 -9 -29 -131 -117 -250 -180 -55 -30 -127 -72 -160 -94 -33 -22 -73 -48
-88 -59 -16 -10 -49 -33 -75 -50 -26 -17 -51 -37 -55 -44 -4 -7 -12 -13 -18
-13 -9 0 -115 -76 -233 -167 -80 -62 -178 -153 -263 -243 -137 -144 -203 -219
-203 -229 0 -6 -23 -41 -52 -78 -28 -37 -62 -95 -74 -127 -13 -33 -30 -66 -38
-75 -65 -74 -106 -267 -106 -497 0 -165 6 -206 43 -309 13 -33 152 -205 167
-205 6 0 29 -17 53 -39 23 -21 67 -53 97 -71 30 -19 62 -39 70 -45 18 -14 146
-67 215 -90 60 -19 330 -55 418 -55 93 -1 201 -17 243 -37 60 -29 73 -61 79
-204 6 -117 32 -277 54 -316 5 -10 21 -72 35 -138 14 -66 33 -145 42 -175 8
-30 19 -68 24 -85 39 -146 79 -269 120 -370 26 -66 53 -138 60 -160 7 -22 32
-82 56 -132 24 -51 44 -97 44 -102 0 -15 42 -103 72 -152 16 -26 40 -80 53
-120 14 -40 43 -103 64 -139 22 -36 48 -85 57 -110 20 -51 35 -77 80 -137 18
-23 38 -59 44 -79 7 -21 28 -58 48 -83 19 -25 48 -75 64 -110 15 -35 49 -91
74 -125 26 -34 51 -72 57 -86 6 -14 30 -52 52 -85 23 -33 49 -76 58 -95 9 -19
39 -64 68 -99 100 -124 136 -243 87 -288 -25 -23 -69 -38 -138 -48 -80 -12
-134 -49 -102 -69 5 -3 67 -7 138 -10 128 -5 293 -34 321 -58 8 -6 34 -21 58
-32 25 -12 68 -44 97 -72 67 -64 163 -137 253 -194 69 -43 155 -116 155 -132
0 -19 -40 -5 -78 28 -51 44 -172 123 -226 148 l-40 19 -21 -27 c-21 -26 -27
-28 -111 -28 -73 -1 -103 4 -169 27 -82 29 -183 92 -245 151 -83 80 -133 125
-151 134 -17 9 -19 7 -19 -17 0 -22 33 -59 175 -197 110 -107 175 -178 175
-191 0 -10 -21 -40 -46 -66 -26 -26 -43 -52 -40 -58 10 -15 48 -14 71 3 20 13
112 38 210 57 96 18 194 -3 342 -76 29 -14 55 -25 57 -25 3 0 25 -14 50 -30
24 -17 62 -37 83 -46 39 -16 109 -66 199 -141 28 -24 55 -43 59 -43 5 0 16 -6
24 -14 9 -7 43 -28 76 -46 33 -18 67 -38 75 -45 24 -20 123 -72 150 -80 14 -4
54 -24 90 -45 48 -28 81 -40 127 -44 58 -6 63 -5 63 12 0 13 -21 32 -61 57
-33 20 -63 44 -66 51 -3 8 -26 29 -52 46 -25 18 -73 57 -107 88 -33 30 -99 87
-145 125 -46 39 -108 93 -137 122 -30 29 -86 74 -126 100 -39 26 -101 78 -137
116 -37 37 -71 67 -77 67 -6 0 -12 4 -14 9 -1 5 -106 115 -233 244 -126 128
-250 260 -275 293 -25 32 -67 82 -93 110 -27 28 -66 75 -88 105 -21 30 -45 61
-52 69 -33 37 -67 88 -67 100 0 7 -7 20 -15 29 -40 42 -135 172 -135 186 0 8
-4 15 -10 15 -5 0 -17 15 -26 33 -9 17 -26 44 -38 58 -12 15 -37 53 -56 85
-19 31 -54 86 -78 121 -23 36 -42 66 -42 68 0 2 -14 27 -30 56 -44 73 -164
308 -179 349 -16 42 -59 139 -72 160 -5 8 -12 22 -15 30 -7 17 -19 45 -62 145
-44 101 -92 229 -92 246 0 8 -7 23 -15 33 -8 11 -15 28 -15 37 0 10 -14 51
-30 92 -17 42 -30 86 -30 99 0 13 -7 33 -15 44 -8 10 -15 29 -15 42 0 12 -4
30 -9 40 -6 9 -17 42 -25 72 -46 163 -76 280 -82 320 -3 25 -12 63 -19 85 -15
47 -32 123 -41 184 -8 49 1 60 45 53 27 -4 30 -8 36 -56 4 -28 13 -76 20 -106
7 -30 32 -134 54 -230 23 -96 60 -229 82 -295 22 -66 46 -140 53 -165 20 -67
66 -201 81 -235 7 -16 19 -48 28 -70 21 -55 103 -256 134 -330 44 -102 134
-286 180 -368 47 -83 72 -128 123 -222 18 -33 37 -66 43 -73 12 -15 40 -66 61
-109 9 -17 20 -34 25 -38 5 -3 24 -30 41 -60 17 -30 46 -72 63 -93 18 -22 39
-49 47 -62 27 -40 162 -225 176 -240 8 -8 31 -36 51 -62 256 -317 267 -329
624 -673 136 -131 223 -204 234 -193 6 6 -39 90 -88 163 -47 70 -161 283 -218
405 -21 47 -51 108 -65 135 -15 28 -64 124 -110 214 -87 172 -92 178 -206 257
-133 91 -216 214 -276 409 -35 114 -48 178 -61 285 -15 129 -14 170 4 170 8 0
15 -4 15 -9 0 -4 51 -50 112 -102 162 -134 200 -180 268 -319 73 -150 83 -192
85 -350 l2 -145 48 -85 c27 -47 73 -132 103 -190 29 -58 59 -105 65 -105 17 0
14 71 -7 190 -34 191 -19 276 89 510 21 44 41 91 46 104 8 19 12 21 24 11 8
-7 15 -17 15 -24 0 -6 9 -33 19 -61 57 -149 68 -323 32 -490 -12 -58 -63 -176
-93 -216 -36 -49 -62 -123 -55 -159 7 -34 73 -174 143 -300 157 -288 334 -513
539 -684 61 -51 124 -106 141 -123 17 -17 54 -45 82 -63 29 -17 55 -37 59 -44
14 -21 96 -86 110 -86 22 0 15 23 -32 95 -25 39 -59 97 -76 130 -16 33 -34 67
-39 75 -4 8 -25 53 -45 100 -60 138 -68 153 -111 200 -22 25 -70 86 -107 135
-36 50 -77 104 -90 120 -14 17 -41 71 -62 120 -44 104 -49 111 -84 128 -16 7
-39 37 -60 77 -29 55 -35 78 -39 146 -5 98 12 227 42 309 22 63 117 245 127
245 8 0 94 -175 109 -224 20 -63 7 -272 -24 -372 -13 -45 -28 -90 -33 -100 -5
-10 -17 -34 -26 -52 -9 -19 -17 -40 -17 -47 0 -23 51 -118 97 -177 23 -32 63
-85 88 -117 25 -33 45 -63 45 -68 1 -16 50 -64 60 -58 14 8 13 42 -2 68 -7 12
-15 47 -19 77 -5 30 -13 84 -18 120 -13 80 -14 254 -2 337 5 34 19 95 31 135
12 40 24 79 26 87 3 9 19 -1 49 -30 53 -51 95 -118 95 -151 0 -13 6 -32 14
-43 14 -21 19 -47 38 -193 9 -70 9 -123 1 -215 -12 -134 -36 -220 -84 -298
-30 -48 -31 -53 -19 -92 26 -91 117 -262 208 -392 139 -200 213 -276 377 -388
33 -22 62 -43 65 -47 16 -21 120 -94 164 -116 28 -14 83 -47 121 -74 39 -28
92 -61 118 -75 27 -14 78 -44 115 -67 37 -23 123 -70 192 -106 69 -36 179 -94
245 -129 237 -124 262 -128 172 -22 -62 74 -146 199 -166 248 -8 18 -34 56
-58 85 -46 53 -75 103 -98 171 -65 191 -73 357 -26 544 16 62 34 117 42 122
15 9 39 -7 39 -26 0 -7 7 -15 14 -18 18 -7 70 -108 103 -202 36 -100 51 -216
52 -394 1 -140 -1 -159 -19 -186 -27 -41 -26 -50 21 -130 62 -108 98 -153 257
-319 59 -62 152 -118 355 -217 78 -38 149 -74 158 -79 18 -9 251 -102 364
-145 39 -14 93 -37 120 -49 28 -13 69 -29 92 -35 23 -6 45 -16 48 -21 3 -6 15
-10 26 -10 10 0 27 -4 37 -9 34 -19 152 -52 162 -46 24 15 6 37 -116 142 -45
38 -96 85 -113 104 -37 40 -32 35 -124 125 -44 43 -102 87 -147 112 -140 76
-317 214 -360 281 -33 53 -57 72 -154 121 -117 59 -186 145 -237 295 -24 71
-32 119 -43 259 -7 94 -17 179 -21 188 -5 12 -2 20 9 24 33 13 249 -190 301
-285 36 -63 95 -201 95 -221 0 -9 4 -20 9 -25 12 -15 34 -182 27 -210 -7 -27
10 -69 50 -122 24 -31 141 -126 260 -209 95 -66 122 -57 60 19 -28 35 -71 118
-146 282 -21 46 -50 174 -51 225 0 30 -3 63 -7 72 -9 22 1 204 11 215 5 4 12
1 17 -7 4 -7 22 -30 39 -49 90 -103 220 -302 247 -375 70 -193 68 -180 70
-362 l2 -171 39 -54 c55 -79 80 -106 163 -178 41 -36 80 -69 85 -75 39 -42
166 -146 195 -159 38 -18 314 -99 395 -116 28 -6 77 -17 110 -25 209 -51 458
-106 602 -131 89 -16 127 -36 107 -55 -14 -14 -187 -13 -224 2 -8 3 -42 11
-75 17 -33 6 -89 18 -125 27 -36 8 -99 22 -140 30 -96 18 -127 25 -280 62
-202 50 -214 53 -245 64 -16 6 -43 12 -60 15 -49 7 -156 33 -209 50 -45 14
-57 14 -140 0 -50 -9 -131 -22 -181 -28 -87 -11 -92 -13 -141 -58 -31 -29 -77
-57 -120 -74 -60 -24 -82 -28 -174 -27 -58 0 -115 0 -128 1 -32 1 -39 -8 -19
-29 15 -14 36 -17 120 -16 90 0 114 4 207 36 58 20 134 50 170 67 36 17 99 36
140 42 104 16 305 6 400 -21 121 -33 493 -115 675 -149 61 -11 160 -31 220
-44 61 -14 160 -30 220 -36 171 -19 245 -51 245 -106 0 -35 -28 -64 -118 -122
-120 -77 -160 -110 -178 -145 -12 -23 -13 -33 -3 -44 16 -20 29 -18 29 5 0 23
49 61 78 61 11 0 22 7 26 15 3 8 11 15 18 15 7 0 58 31 113 68 73 49 113 84
150 133 47 61 52 73 64 150 7 48 13 188 14 324 1 233 -17 749 -27 783 -3 9 -8
101 -10 204 -3 103 -10 196 -16 207 -5 11 -10 33 -10 49 0 48 -15 53 -160 51
l-132 -1 -36 36 -36 36 13 47 c8 27 14 59 13 73 -1 14 3 39 8 55 5 17 11 158
15 315 7 343 17 439 56 546 16 44 29 85 29 91 0 13 88 196 131 273 29 53 30
58 25 146 -8 115 -46 234 -76 234 -13 0 -28 -59 -34 -133 -3 -37 -10 -93 -15
-125 -6 -31 -20 -113 -32 -182 -12 -69 -26 -130 -30 -136 -8 -9 -32 -86 -59
-184 -23 -82 -39 -172 -50 -270 -6 -58 -13 -113 -16 -122 -7 -24 -31 -23 -39
1 -7 23 11 327 24 401 6 30 15 84 21 120 18 112 32 174 46 208 8 18 14 44 14
58 0 15 6 47 14 73 44 140 57 194 62 262 6 66 3 80 -20 133 -28 63 -27 66 19
111 5 6 23 27 38 48 16 21 36 37 48 37 23 0 131 -58 200 -107 28 -20 58 -33
77 -33 27 0 95 39 174 102 19 15 46 23 86 26 59 4 59 4 80 -32 12 -20 33 -41
47 -46 28 -11 31 -28 12 -80 -18 -54 -46 -91 -65 -89 -38 6 -60 -13 -91 -76
-32 -67 -50 -158 -51 -256 0 -45 6 -64 31 -105 105 -164 166 -351 200 -614 11
-88 13 -118 29 -405 9 -164 22 -287 35 -350 5 -23 1 -37 -13 -55 -20 -24 -23
-25 -164 -25 -79 0 -149 -4 -156 -8 -25 -16 -31 -56 -42 -249 -5 -106 -15
-238 -20 -293 -30 -275 -45 -914 -22 -937 6 -6 12 -29 12 -51 0 -75 22 -181
44 -210 74 -100 226 -227 270 -227 9 0 19 -6 22 -14 6 -16 55 -36 85 -36 34 0
20 29 -33 69 -187 142 -208 163 -208 205 0 63 56 89 210 101 143 10 251 27
335 52 44 13 123 30 177 38 53 8 131 25 175 38 43 14 114 30 158 36 44 7 118
25 165 41 92 30 302 60 422 60 96 0 200 -23 268 -59 114 -60 241 -103 320
-108 88 -5 155 6 155 27 0 12 -25 16 -125 22 -155 8 -194 15 -216 39 -9 10
-23 19 -29 19 -7 0 -37 20 -67 45 -60 49 -137 75 -223 75 -29 0 -77 5 -109 12
-56 11 -124 2 -241 -32 -16 -5 -50 -12 -75 -15 -25 -4 -61 -12 -80 -20 -19 -7
-98 -27 -175 -45 -77 -18 -174 -41 -215 -52 -41 -11 -97 -24 -125 -29 -91 -16
-210 -40 -245 -50 -108 -28 -355 -48 -373 -30 -17 17 11 33 44 26 18 -4 31 0
44 15 11 12 31 20 49 20 33 0 122 17 221 43 33 9 87 21 120 26 33 6 119 24
190 42 72 17 154 35 184 40 30 6 91 21 135 35 273 84 319 104 380 167 23 23
65 62 95 87 134 111 169 146 253 255 l50 65 -12 65 c-23 120 2 304 56 422 7
17 14 33 14 36 0 3 25 45 55 94 30 48 65 105 77 127 13 21 42 62 64 90 23 29
47 62 53 74 15 28 41 29 42 2 1 -11 3 -32 4 -47 20 -235 15 -300 -36 -442 -23
-64 -83 -174 -104 -191 -8 -7 -15 -16 -15 -21 0 -5 -13 -28 -30 -51 -51 -70
-33 -104 28 -53 17 14 32 25 35 25 16 0 149 101 200 152 70 69 87 108 86 190
-4 141 11 239 49 323 53 119 90 170 198 276 106 102 146 133 165 127 9 -3 11
-44 10 -149 -3 -212 -28 -310 -107 -433 -61 -92 -153 -182 -219 -212 -42 -20
-61 -37 -94 -87 -61 -91 -320 -287 -426 -324 -32 -11 -56 -28 -82 -61 -48 -62
-257 -265 -310 -303 -81 -57 -76 -95 9 -65 168 58 224 79 242 88 12 6 55 24
96 38 41 15 148 57 237 94 90 36 167 66 173 66 5 0 38 13 72 29 35 16 106 49
158 74 116 54 301 174 355 231 137 144 185 201 228 273 50 86 57 116 31 144
-26 29 -47 216 -40 364 5 107 11 144 34 212 25 71 93 193 128 230 7 7 14 18
16 25 9 26 37 -4 52 -54 47 -169 65 -330 47 -433 -24 -139 -69 -246 -147 -355
-18 -25 -40 -65 -50 -90 -10 -25 -31 -65 -48 -89 -17 -24 -42 -61 -56 -82 -14
-21 -33 -44 -42 -51 -8 -7 -23 -25 -33 -40 -16 -26 -16 -28 0 -34 17 -7 234
96 256 122 6 8 15 14 20 14 17 0 219 105 268 139 14 10 57 36 94 57 95 54 125
72 204 125 37 25 106 69 153 98 121 74 235 153 289 200 25 22 74 63 108 90 34
28 69 61 78 73 207 297 244 360 305 521 l33 88 -31 32 c-65 67 -97 186 -111
411 -11 187 -4 225 71 385 52 111 63 117 79 44 5 -21 22 -78 38 -128 51 -156
61 -199 68 -294 6 -90 -6 -202 -29 -264 -20 -54 6 -52 58 3 27 28 54 59 59 69
6 9 29 42 51 72 51 67 90 143 99 191 6 30 1 48 -28 105 -71 136 -100 324 -73
458 17 79 100 265 122 272 16 5 144 -214 144 -246 0 -9 9 -40 20 -69 49 -128
8 -349 -84 -459 -39 -47 -74 -106 -92 -156 -15 -41 -61 -112 -129 -197 -108
-135 -192 -258 -204 -300 -14 -49 -104 -225 -157 -305 -18 -27 -36 -63 -40
-79 -6 -26 -5 -28 17 -21 33 10 42 15 86 53 21 17 61 51 88 73 134 111 412
379 444 429 8 14 49 68 91 120 42 52 81 106 88 120 32 62 48 89 87 145 35 50
74 120 116 207 5 10 12 48 15 85 6 64 4 71 -28 128 -60 106 -68 124 -95 230
-44 175 -55 289 -34 359 5 17 14 54 21 81 11 49 74 195 84 195 3 0 23 -27 44
-60 35 -54 50 -89 108 -263 14 -40 16 -77 12 -193 -3 -79 -10 -149 -15 -156
-14 -17 -43 -159 -43 -208 0 -22 4 -42 10 -45 10 -6 60 85 60 111 0 9 13 33
28 53 16 20 58 97 95 171 l67 135 -8 87 c-6 66 -3 107 10 174 17 86 68 223 95
255 7 8 13 21 13 27 0 6 18 32 40 57 22 25 40 49 40 53 0 11 99 114 134 139
43 32 83 63 122 96 18 16 35 23 39 18 5 -9 -15 -189 -35 -316 -14 -87 -54
-205 -94 -275 -59 -103 -166 -220 -278 -302 -54 -39 -70 -58 -84 -96 -10 -26
-26 -60 -36 -77 -10 -16 -18 -36 -18 -43 0 -11 -91 -206 -183 -391 -38 -78
-122 -226 -148 -263 -11 -14 -19 -29 -19 -32 0 -8 -71 -110 -82 -117 -11 -7
-78 -111 -78 -121 0 -13 24 -9 55 11 127 78 606 570 783 804 30 39 71 90 91
112 20 22 44 53 52 70 7 16 42 64 76 107 34 42 67 87 74 100 7 13 29 43 49 68
33 41 100 145 100 155 0 4 83 133 121 187 11 15 19 31 19 35 0 9 12 31 79 153
23 41 60 113 82 160 23 47 63 129 89 183 27 54 52 108 56 120 4 12 19 49 34
82 15 33 33 76 40 95 7 19 19 49 25 65 7 17 22 53 34 82 11 28 21 62 21 75 0
13 4 28 9 33 5 6 18 37 29 70 86 249 111 329 127 395 9 41 23 98 30 125 8 28
28 113 45 190 17 77 36 157 41 178 17 66 46 248 94 592 13 94 26 213 35 305
13 146 12 845 -1 955 -39 325 -39 345 0 345 37 0 40 -15 62 -255 18 -190 23
-313 23 -590 1 -192 -3 -379 -7 -415 -4 -36 -12 -119 -16 -185 -20 -280 -59
-518 -137 -855 -20 -88 -32 -144 -44 -210 -11 -62 -38 -165 -50 -195 -5 -11
-15 -42 -23 -70 -8 -27 -28 -95 -45 -150 -17 -55 -40 -131 -51 -170 -11 -38
-39 -115 -61 -170 -23 -55 -51 -125 -62 -155 -11 -30 -31 -77 -45 -105 -40
-79 -61 -126 -79 -178 -9 -26 -21 -50 -25 -53 -5 -3 -9 -13 -9 -23 0 -20 -173
-367 -207 -416 -11 -17 -33 -52 -49 -79 -59 -100 -83 -142 -96 -166 -22 -43
-199 -303 -229 -338 -16 -18 -29 -36 -29 -41 0 -7 -71 -94 -125 -153 -14 -15
-25 -29 -25 -33 0 -5 -107 -135 -120 -145 -3 -3 -26 -32 -51 -65 -59 -80 -79
-103 -113 -134 -15 -14 -50 -53 -76 -86 -93 -115 -461 -475 -540 -526 -106
-70 -136 -90 -201 -142 -80 -63 -168 -140 -255 -224 -35 -34 -74 -65 -87 -69
-12 -3 -52 -31 -88 -60 -36 -30 -70 -54 -75 -54 -17 -1 -54 -38 -54 -55 0 -14
6 -16 28 -12 165 35 206 54 287 135 35 34 117 82 143 82 5 0 23 7 40 16 18 8
36 13 42 9 5 -3 31 3 56 14 26 12 51 21 56 21 17 0 102 72 153 130 76 86 90
97 139 103 25 4 92 29 148 56 112 55 267 94 335 85 69 -9 188 -37 215 -50 35
-18 78 -18 78 0 0 7 -11 34 -25 60 -14 26 -25 53 -25 61 0 26 78 130 136 182
143 125 174 159 174 186 0 46 -33 32 -125 -56 -178 -168 -319 -233 -515 -239
-101 -3 -105 -2 -115 20 -5 12 -16 22 -24 22 -42 0 -216 -138 -250 -199 -9
-16 -27 -49 -40 -72 -22 -40 -24 -42 -37 -24 -21 29 -18 37 41 99 30 31 55 63
55 71 0 14 89 94 160 142 25 17 72 57 106 90 34 32 85 71 115 86 30 16 61 32
69 37 23 14 108 50 170 72 58 22 95 26 229 30 51 2 86 7 88 14 6 19 -35 24
-198 24 -107 0 -159 4 -167 12 -23 23 -13 62 33 118 25 30 45 58 45 63 0 4 28
39 63 77 154 172 182 203 207 243 15 23 34 48 44 56 10 8 30 40 46 70 15 31
42 74 60 96 18 22 43 63 57 90 14 28 35 64 48 80 12 17 43 71 70 120 26 50 58
104 70 120 27 37 52 86 71 143 8 24 29 66 46 95 40 68 157 320 197 426 18 46
43 105 56 130 51 100 116 264 141 353 82 299 163 567 197 659 14 37 33 113 42
170 9 57 36 194 60 304 32 145 47 243 55 355 6 85 15 211 20 280 35 485 11
1148 -51 1425 -15 65 1 128 42 166 69 64 238 102 454 102 189 1 342 -30 441
-88 44 -26 109 -97 160 -175 33 -50 88 -92 110 -83 20 8 18 72 -6 125 -25 58
-121 148 -196 185 -190 95 -394 130 -687 119 -106 -4 -205 -9 -222 -12 -16 -2
-48 -6 -70 -10 -100 -14 -235 -37 -290 -49 -60 -14 -131 -29 -275 -60 -128
-28 -680 -211 -925 -306 -97 -39 -328 -135 -525 -219 -80 -35 -185 -79 -235
-100 -49 -20 -106 -44 -125 -53 -19 -9 -80 -35 -135 -58 -55 -23 -128 -54
-162 -70 -34 -16 -78 -35 -97 -43 -31 -13 -36 -20 -46 -73 -23 -114 -139 -294
-238 -370 -125 -95 -247 -170 -306 -189 -23 -6 -63 -22 -90 -33 -173 -75 -439
-111 -559 -76 -66 20 -122 50 -148 81 -23 26 -52 121 -46 147 12 49 40 114 62
143 34 44 152 129 205 147 25 9 79 31 120 50 41 20 104 45 140 56 36 11 80 26
99 32 19 7 62 18 95 26 121 28 143 34 225 65 23 9 24 10 19 111 -3 56 -13 129
-21 162 -9 33 -25 98 -36 145 -11 47 -29 119 -40 160 -35 129 -52 246 -46 326
8 105 -6 107 -98 14 -171 -174 -642 -589 -798 -702 -109 -80 -238 -168 -244
-168 -6 0 -22 -11 -93 -59 -18 -12 -102 -58 -188 -102 -228 -117 -377 -162
-609 -183 -117 -11 -147 -11 -180 0 -22 8 -54 14 -71 14 -17 0 -37 7 -44 15
-7 8 -19 15 -26 15 -17 0 -68 27 -112 60 -18 13 -52 54 -77 90 -56 82 -89 212
-82 317 8 117 39 248 76 320 53 104 22 88 -189 -102 -140 -125 -314 -256 -545
-407 -102 -67 -387 -215 -460 -238 -22 -7 -62 -21 -90 -30 -27 -9 -77 -22
-110 -29 -33 -7 -73 -16 -90 -20 -98 -25 -332 -6 -436 35 -130 51 -225 166
-261 314 -31 126 -4 325 64 473 17 37 28 70 25 74 -4 3 -29 -14 -56 -38 -107
-95 -159 -138 -226 -186 -63 -45 -91 -63 -196 -125 -43 -26 -367 -178 -378
-178 -5 0 -62 -24 -126 -53 l-116 -53 -24 -68 c-56 -159 -155 -292 -303 -403
-105 -79 -187 -123 -295 -158 -40 -13 -103 -35 -141 -49 -87 -33 -276 -58
-365 -50 -36 3 -96 15 -133 25 -55 16 -74 27 -106 64 -43 49 -59 105 -47 167
8 41 78 145 126 187 67 57 343 182 499 225 30 8 98 27 150 42 52 14 113 30
135 35 21 6 45 15 53 21 29 25 -8 304 -68 513 -43 150 -61 268 -59 388 1 43
-1 80 -5 84 -11 11 -55 -19 -123 -87 -75 -74 -172 -145 -248 -183 -164 -82
-608 -166 -808 -154 -161 11 -472 52 -544 73 -23 6 -28 1 -82 -96 -36 -64
-225 -444 -253 -510 -37 -86 -132 -349 -164 -455 -31 -103 -64 -288 -70 -392
-11 -174 28 -286 122 -354 104 -75 142 -129 92 -129 -22 0 -135 19 -153 26
-21 8 -104 60 -126 79 -36 31 -96 125 -123 192 -45 114 -59 222 -53 393 11
304 88 611 259 1035 34 83 74 178 90 213 17 35 28 69 25 76 -6 15 -71 36 -192
61 -44 10 -109 23 -145 31 -36 8 -108 23 -160 34 -52 10 -122 26 -155 35 -102
25 -447 93 -511 100 l-61 7 -33 -39 c-18 -21 -99 -108 -179 -193 -439 -466
-882 -906 -997 -992 -16 -13 -68 -55 -115 -94 -173 -145 -561 -423 -659 -472
-14 -6 -45 -25 -70 -42 -258 -169 -763 -370 -1015 -405 -375 -51 -555 -46
-810 23 -139 38 -326 166 -420 287 -102 131 -153 316 -127 458 7 36 12 75 12
88 0 44 70 243 124 349 127 255 382 544 644 730 35 25 84 61 110 81 164 126
537 315 762 387 239 77 350 106 486 127 49 8 130 22 179 30 107 20 199 30 400
45 83 6 182 14 220 18 80 9 397 -2 560 -18 240 -24 285 -29 430 -50 83 -11
184 -25 225 -30 41 -5 101 -16 133 -24 l57 -13 59 61 c32 33 114 124 182 201
113 127 212 236 324 355 23 25 74 83 114 130 40 47 108 121 150 165 42 44 117
125 166 180 325 359 878 894 1080 1045 28 20 64 50 81 66 17 16 83 69 147 117
63 48 120 94 127 102 7 8 18 15 24 15 7 0 39 20 72 43 32 24 86 59 119 77 33
18 83 47 110 65 170 108 435 204 564 205 113 0 215 -66 252 -165 30 -78 27
-107 -30 -320 -12 -45 -85 -194 -148 -303 -31 -53 -65 -113 -76 -132 -24 -44
-140 -230 -178 -288 -16 -23 -29 -45 -29 -48 0 -4 -13 -23 -28 -43 -16 -20
-37 -52 -48 -71 -10 -19 -37 -60 -60 -90 -22 -30 -58 -84 -80 -120 -21 -36
-52 -83 -67 -105 -102 -146 -374 -553 -437 -653 -25 -40 -90 -140 -145 -223
-110 -167 -166 -253 -281 -439 -151 -245 -165 -270 -162 -287 4 -23 68 -38
328 -75 112 -15 442 -3 560 22 52 11 127 27 165 35 39 7 111 28 160 46 93 33
176 90 319 219 33 31 81 72 106 92 25 20 60 62 79 94 82 141 113 181 187 243
115 95 279 167 439 190 344 52 548 -55 506 -263 -22 -104 -104 -207 -202 -250
-57 -26 -62 -27 -85 -12 -13 9 -24 25 -24 34 0 10 40 55 89 100 66 60 94 94
106 127 17 42 17 46 -2 82 -12 24 -36 47 -64 63 -39 22 -54 25 -129 23 -73 -2
-93 -7 -148 -34 -136 -70 -248 -221 -278 -376 -29 -151 -16 -279 50 -503 24
-80 48 -163 55 -186 20 -75 41 -208 41 -271 0 -34 5 -65 11 -69 6 -3 27 1 47
9 21 9 96 39 167 67 178 71 452 217 505 270 15 15 90 70 95 70 8 0 91 66 120
95 11 11 36 31 54 45 112 83 219 182 305 285 100 117 176 193 281 278 125 100
203 150 330 211 290 140 553 171 695 81 50 -32 60 -46 76 -116 13 -56 13 -70
-2 -128 -20 -83 -35 -111 -94 -186 -44 -54 -170 -175 -184 -175 -3 0 -27 -15
-53 -34 -56 -39 -222 -127 -307 -162 -91 -37 -311 -101 -413 -119 -78 -14 -93
-20 -98 -38 -4 -12 -17 -44 -30 -72 -38 -81 -81 -205 -101 -288 -17 -76 -17
-80 1 -154 25 -99 62 -149 138 -187 50 -25 69 -29 133 -28 41 1 90 9 110 17
20 8 44 15 53 15 38 0 254 80 331 123 188 104 197 109 399 247 53 36 330 251
396 308 11 9 65 55 121 102 179 151 249 213 258 229 6 9 35 41 65 71 31 31 90
92 131 136 67 71 191 179 297 257 89 67 357 181 488 209 82 18 288 21 332 6
58 -20 113 -60 120 -87 3 -14 12 -36 19 -50 18 -33 18 -86 0 -154 -19 -74 -39
-110 -102 -189 -45 -56 -160 -158 -178 -158 -3 0 -31 -18 -63 -41 -61 -43
-187 -106 -327 -164 -92 -38 -356 -113 -426 -122 l-46 -5 -36 -77 c-86 -181
-111 -268 -112 -381 -1 -87 2 -101 29 -155 28 -55 35 -63 100 -95 75 -37 177
-52 218 -32 12 6 40 13 62 16 127 18 344 112 555 239 135 82 403 276 530 383
36 30 108 90 160 132 52 42 142 122 200 177 175 168 193 185 201 185 14 0 209
196 209 209 0 28 90 161 150 222 103 104 141 129 285 189 119 49 221 65 374
57 128 -6 208 -29 261 -74 61 -50 75 -188 31 -288 -33 -74 -158 -175 -215
-175 -26 0 -56 19 -56 34 0 8 30 43 66 77 97 93 124 133 124 184 0 74 -52 118
-161 136 -60 10 -121 -1 -181 -31 -36 -19 -168 -121 -168 -131 0 -4 -13 -28
-30 -52 -41 -62 -89 -197 -101 -287 -11 -83 -3 -143 38 -295 13 -49 38 -139
54 -200 16 -60 34 -132 39 -160 5 -27 14 -74 19 -104 6 -29 11 -78 11 -108 0
-37 4 -55 14 -59 8 -3 77 20 153 50 77 31 143 56 148 56 4 0 44 17 89 39 44
21 108 50 141 64 33 14 118 53 189 87 71 34 185 86 255 116 69 31 169 76 221
101 52 26 109 52 125 59 17 6 80 35 140 64 118 56 260 117 365 157 103 39 232
84 265 93 17 5 62 19 100 33 39 13 97 32 130 41 33 10 71 22 85 26 14 5 70 18
125 29 55 12 145 30 200 42 324 67 662 61 860 -16 22 -9 49 -19 59 -22 88 -28
245 -155 305 -243 44 -67 80 -165 82 -225 4 -122 16 -147 53 -106 24 26 31 83
16 138 -18 68 -93 194 -146 245 -25 24 -52 55 -59 70 -14 26 -188 148 -211
148 -7 0 -42 14 -79 30 -127 57 -357 82 -673 73 -271 -8 -381 11 -409 69 -23
47 -22 60 3 121 14 34 36 104 50 155 24 93 54 165 74 177 6 4 21 23 34 44 13
20 41 56 63 79 22 24 45 53 51 65 86 181 107 235 110 297 4 71 -8 117 -34 127
-23 9 -32 -11 -38 -91 -7 -74 -27 -153 -56 -221 -10 -22 -22 -52 -28 -66 -12
-31 -119 -149 -136 -149 -36 -1 -116 -108 -116 -157 0 -12 -5 -34 -12 -50 -6
-15 -14 -62 -17 -103 l-6 -75 -34 0 c-32 0 -34 2 -47 50 -8 28 -18 72 -24 99
-6 27 -14 54 -19 60 -5 6 -13 31 -19 56 -6 25 -27 90 -48 145 -20 55 -47 129
-59 165 -33 94 -64 162 -83 184 -9 10 -62 55 -117 99 -55 45 -126 106 -158
136 -32 31 -71 64 -86 74 -28 17 -30 17 -68 -3 -36 -18 -53 -20 -179 -16 -141
5 -185 15 -259 56 -45 25 -86 52 -102 65 -6 5 -41 35 -77 65 -36 30 -66 60
-66 67 0 18 62 26 144 20 135 -10 403 -71 444 -101 20 -15 27 2 11 31 -33 62
-163 110 -374 138 -142 19 -280 52 -296 71 -6 8 -17 14 -23 14 -14 0 -159 106
-164 119 -6 16 34 23 163 27 128 4 259 -9 271 -27 3 -5 12 -9 20 -9 8 0 53
-23 100 -51 58 -35 93 -64 110 -90 14 -23 32 -39 44 -39 29 0 34 19 11 44 -12
12 -21 30 -21 39 0 9 -6 20 -13 24 -18 11 -87 114 -87 130 0 23 16 14 46 -26
16 -22 37 -42 46 -44 9 -3 32 -26 49 -51 18 -25 36 -46 40 -46 4 0 22 -24 39
-52 17 -29 51 -80 75 -113 24 -33 57 -83 74 -110 16 -29 71 -90 127 -140 54
-50 123 -114 154 -142 31 -29 62 -53 68 -53 18 0 14 36 -8 80 -11 22 -20 46
-20 55 0 9 -10 35 -22 58 -21 39 -56 119 -95 212 -23 56 -161 324 -222 433
-45 78 -56 91 -84 97 -33 7 -164 69 -181 86 -6 5 -16 9 -23 9 -7 0 -51 23 -99
51 -49 29 -93 49 -102 46 -10 -3 -37 -14 -62 -23 -35 -13 -77 -18 -185 -18
-150 -1 -180 5 -310 64 -33 15 -71 31 -85 35 -38 12 -121 56 -160 85 -19 15
-43 30 -52 33 -29 11 -20 36 18 52 25 10 87 17 188 21 132 5 162 3 241 -16
159 -38 189 -43 249 -44 l59 -1 66 -71 c45 -49 88 -84 136 -110 221 -119 270
-138 281 -109 7 17 -2 39 -34 86 -56 84 -75 114 -100 159 -25 44 -118 184
-147 220 -42 52 -109 111 -132 116 -16 4 -68 27 -118 51 -140 69 -289 127
-425 167 l-125 36 -125 -15 c-132 -16 -204 -13 -308 11 -76 18 -271 92 -293
111 -8 7 -20 13 -25 13 -5 0 -32 15 -60 33 -28 19 -58 37 -68 40 -28 11 -14
38 29 54 165 60 283 68 472 33 177 -33 272 -80 374 -184 51 -51 61 -57 183
-96 154 -50 385 -149 431 -185 19 -14 38 -25 44 -25 20 0 10 35 -22 77 -18 23
-66 88 -107 145 -41 57 -95 130 -121 163 -25 33 -58 78 -72 100 -14 22 -42 58
-63 80 -21 22 -65 72 -99 110 -33 39 -73 81 -90 95 -16 14 -41 36 -55 50 -93
88 -118 104 -210 137 -52 18 -108 40 -125 48 -61 30 -240 95 -261 95 -12 0
-27 -7 -34 -15 -7 -8 -17 -15 -23 -15 -6 0 -20 -9 -31 -19 -28 -25 -135 -57
-238 -71 -67 -9 -99 -9 -168 3 -101 18 -219 46 -240 58 -8 5 -22 12 -30 15 -8
3 -28 11 -45 19 -16 7 -40 17 -53 20 -13 4 -21 12 -19 18 5 17 123 74 217 104
79 26 96 28 255 28 151 -1 177 -3 234 -23 39 -14 67 -20 73 -14 11 11 -72 80
-135 112 -23 12 -67 37 -97 55 -76 46 -195 105 -213 105 -8 0 -22 -11 -31 -24
-42 -65 -132 -102 -276 -113 -89 -7 -268 12 -307 33 -16 7 -35 14 -43 14 -15
0 -126 37 -143 47 -13 8 14 33 34 33 11 0 38 11 60 25 54 35 199 81 279 89 43
5 115 0 217 -13 129 -17 168 -27 266 -65 63 -26 118 -46 122 -46 33 0 258
-165 339 -248 40 -41 70 -59 160 -98 61 -25 139 -59 172 -75 75 -35 114 -38
114 -8 0 24 -231 283 -307 345 -26 21 -77 68 -113 104 -68 68 -188 168 -252
210 -20 14 -42 35 -47 47 -13 28 -37 30 -44 3 -6 -25 -48 -26 -150 -5 -40 9
-106 22 -147 31 -87 17 -145 32 -178 45 -38 15 -107 10 -154 -11 -71 -31 -226
-44 -369 -30 -67 6 -131 15 -143 20 -11 5 -46 16 -76 25 -30 9 -68 23 -85 30
-16 7 -37 16 -45 19 -8 3 -28 15 -45 26 -16 11 -37 22 -45 26 -62 24 -62 24
-51 38 16 19 126 71 181 86 104 28 362 33 455 8 95 -25 166 -63 248 -135 37
-32 61 -44 105 -52 31 -6 71 -16 88 -21 17 -6 39 -10 50 -10 10 0 73 -13 139
-30 66 -16 139 -30 163 -30 36 0 42 3 42 21 0 25 -30 54 -157 150 -53 41 -111
87 -128 102 -46 43 -221 168 -300 214 -38 23 -89 55 -111 71 -23 17 -68 44
-100 62 -74 39 -87 47 -149 91 -27 19 -86 53 -130 75 -44 22 -111 57 -149 78
-54 30 -75 37 -100 32 -153 -31 -244 -38 -371 -27 -165 15 -226 32 -375 104
-144 70 -277 165 -432 310 -75 69 -72 66 -154 135 -32 27 -79 67 -103 89 -44
41 -60 47 -246 88 -33 7 -103 23 -155 35 -217 50 -310 66 -640 114 -96 14
-191 28 -210 31 -19 4 -57 9 -83 12 -93 10 -69 64 29 64 94 1 525 -56 654 -86
36 -8 110 -24 165 -35 55 -12 120 -27 145 -34 25 -8 81 -24 125 -36 44 -12
100 -29 124 -36 24 -8 51 -12 59 -9 17 6 329 6 417 0 55 -4 131 -14 260 -34
95 -15 295 -85 371 -129 71 -42 75 -44 149 -94 89 -59 245 -221 245 -255 0 -9
23 -54 56 -111 10 -18 30 -35 43 -39 13 -3 49 -19 80 -34 31 -16 60 -29 64
-29 5 0 67 -34 138 -75 72 -42 156 -90 187 -106 31 -17 64 -37 72 -44 8 -7 47
-29 85 -50 39 -21 90 -55 115 -75 46 -38 89 -64 95 -58 19 19 -55 130 -96 143
-40 13 -201 129 -241 174 -79 90 -136 186 -182 306 -15 39 -31 78 -36 87 -16
28 -31 97 -42 186 l-10 82 -48 0 c-38 0 -67 -10 -134 -45 -125 -65 -135 -64
-337 39 -91 45 -214 99 -274 119 -204 68 -463 118 -680 132 -181 12 -424 56
-700 127 -44 11 -154 33 -245 48 -91 16 -197 35 -236 44 -39 9 -118 22 -176
30 -58 9 -168 31 -244 50 -172 43 -265 56 -402 56 -59 0 -124 5 -144 10 -67
19 -102 87 -128 249 -14 83 -51 154 -96 185 -36 24 -64 25 -64 2 -1 -30 155
-505 171 -520 3 -3 127 -6 277 -7 150 0 274 -5 277 -10 3 -4 -7 -15 -22 -23
-15 -8 -41 -29 -58 -46 -50 -54 -264 -220 -330 -256 -11 -6 -21 -18 -23 -27
-4 -19 27 -125 104 -360 30 -92 52 -172 49 -178 -4 -6 -28 8 -58 33 -29 24
-77 59 -107 78 -30 19 -106 69 -168 112 -62 43 -123 78 -135 77 -12 0 -42 -16
-67 -34 -51 -39 -148 -107 -230 -162 -30 -20 -76 -53 -101 -75 -45 -36 -69
-47 -69 -30 0 4 24 84 54 177 31 94 69 215 86 270 l31 100 -21 15 c-12 8 -32
24 -45 36 -12 11 -48 38 -79 60 -142 98 -296 220 -296 235 0 3 122 6 271 6
163 0 274 4 280 10 6 6 16 32 24 59 7 27 32 96 55 154 23 58 48 125 55 150 8
25 22 73 33 107 17 53 18 63 5 67 -21 9 -25 8 -58 -13z m-4844 -1458 c4 -50 3
-121 -3 -233 -9 -147 -36 -245 -103 -380 -56 -113 -150 -233 -212 -271 -58
-36 -91 -72 -114 -124 -138 -317 -144 -329 -160 -319 -15 9 1 74 31 134 76
148 124 272 122 314 -2 55 19 250 32 301 67 247 88 283 271 471 99 102 134
129 136 107z m10740 -2743 c60 -11 239 -93 239 -110 0 -6 -27 -10 -68 -10 -44
0 -75 -5 -88 -15 -29 -22 -197 -19 -314 5 -52 11 -99 25 -104 30 -6 6 -22 10
-37 10 -15 0 -32 6 -38 14 -43 52 249 106 410 76z m407 -149 c112 -93 202
-184 202 -202 0 -22 -27 -4 -102 65 -77 72 -189 156 -208 156 -12 0 -16 9 -25
48 -4 20 -3 32 4 32 5 0 63 -44 129 -99z m-12411 -830 c67 -9 75 -18 39 -45
-17 -11 -48 -37 -70 -56 -85 -73 -157 -104 -276 -118 -134 -16 -273 -18 -278
-3 -3 9 25 49 66 94 23 25 127 97 141 97 9 1 32 9 51 20 29 16 55 19 155 19
66 0 144 -4 172 -8z m2663 -4406 c0 -19 -39 -30 -54 -15 -8 8 -6 15 7 25 21
15 47 10 47 -10z m4011 -449 c30 -7 65 -18 77 -25 32 -17 63 -13 89 11 13 12
25 20 27 17 2 -2 6 -68 8 -146 4 -116 2 -143 -9 -143 -8 0 -15 6 -17 13 -38
139 -61 169 -158 205 -109 41 -218 -14 -218 -109 0 -52 50 -107 148 -162 41
-23 94 -53 119 -67 75 -42 158 -123 171 -168 22 -73 10 -152 -35 -224 -29 -48
-53 -63 -128 -82 -83 -22 -183 -20 -247 4 -63 24 -82 25 -98 5 -29 -35 -37
-17 -43 106 -3 67 -3 128 0 136 9 24 27 8 38 -33 29 -111 116 -184 219 -184
79 0 166 42 166 80 0 9 6 25 14 36 12 16 12 25 1 50 -16 38 -104 115 -171 151
-222 118 -302 233 -255 368 36 102 108 154 241 174 3 0 30 -6 61 -13z m3175 1
c4 -4 18 -7 31 -7 37 0 141 -57 193 -106 50 -47 78 -95 110 -188 69 -203 -45
-491 -220 -555 -104 -38 -136 -43 -226 -39 -56 3 -104 11 -124 22 -18 9 -38
16 -43 16 -22 0 -88 54 -126 104 -56 72 -81 151 -88 271 -9 161 35 284 136
378 77 72 188 115 293 112 31 0 60 -4 64 -8z m-1826 -27 c38 -15 56 -18 71
-10 10 6 19 15 19 21 0 6 8 9 18 7 15 -3 18 -19 23 -123 5 -118 -1 -160 -24
-152 -6 2 -16 29 -22 60 -19 94 -96 159 -200 168 -70 7 -133 -44 -159 -127
-13 -42 66 -117 199 -190 211 -114 266 -181 250 -302 -10 -79 -43 -139 -94
-171 -84 -54 -171 -62 -329 -30 -49 9 -69 9 -89 0 -15 -7 -30 -8 -35 -3 -4 4
-11 61 -14 125 -5 103 -3 118 11 124 20 7 35 -12 35 -44 0 -37 77 -122 133
-149 156 -72 311 33 242 165 -13 27 -105 111 -120 111 -20 0 -186 112 -226
154 -118 120 -100 281 42 369 52 32 184 30 269 -3z m-7116 11 c2 -3 6 -49 7
-101 3 -77 1 -95 -10 -95 -8 0 -21 21 -31 49 -9 27 -26 56 -38 64 -23 15 -176
32 -194 21 -7 -5 -10 -115 -10 -364 1 -396 3 -405 62 -405 26 0 48 -15 37 -26
-2 -2 -78 -5 -168 -7 -139 -2 -164 0 -164 13 0 9 14 17 39 21 67 11 66 4 66
395 0 296 -2 355 -15 367 -11 11 -31 14 -82 10 -95 -7 -132 -27 -153 -83 -17
-43 -39 -65 -41 -38 -2 40 3 173 7 180 5 8 683 8 688 -1z m568 -7 c15 -10 -19
-34 -48 -34 -41 0 -49 -24 -53 -177 -2 -104 0 -147 9 -158 10 -12 45 -15 189
-15 124 0 181 4 189 12 13 13 17 220 6 278 -8 35 -53 70 -92 70 -17 0 -23 5
-20 18 3 15 21 17 176 20 163 2 172 1 172 -17 0 -13 -10 -20 -32 -25 -70 -14
-68 0 -68 -391 0 -339 1 -353 20 -378 13 -16 33 -27 53 -29 20 -2 32 -8 32
-18 0 -13 -28 -15 -183 -17 -169 -2 -183 -1 -180 15 2 12 16 19 46 23 74 10
77 17 80 206 3 130 1 168 -10 174 -23 15 -364 11 -376 -4 -9 -10 -16 -195 -12
-319 0 -27 37 -58 68 -58 15 0 34 -5 42 -10 31 -20 -11 -26 -172 -24 -140 2
-163 4 -166 18 -3 12 4 16 26 16 17 0 37 9 48 21 18 20 19 38 15 378 -2 219
-7 361 -13 368 -6 7 -28 18 -49 25 -36 10 -48 26 -33 41 9 8 321 0 336 -9z
m1279 -12 c67 -26 112 -72 133 -132 20 -56 20 -60 0 -127 -20 -70 -61 -116
-129 -144 -30 -12 -55 -26 -55 -31 0 -9 119 -185 168 -248 70 -90 105 -120
145 -127 28 -4 37 -10 35 -22 -3 -13 -21 -16 -109 -18 l-105 -3 -69 96 c-89
122 -111 154 -166 234 -43 63 -46 65 -90 68 -32 2 -48 -1 -50 -10 -9 -28 6
-318 17 -328 6 -6 30 -14 55 -18 29 -5 44 -13 44 -22 0 -13 -28 -15 -171 -16
-94 -1 -177 2 -184 6 -18 11 -3 30 25 30 13 0 36 11 51 23 l27 24 1 353 0 353
-23 18 c-13 11 -33 19 -45 19 -31 0 -50 16 -43 34 6 15 31 16 244 13 215 -3
243 -6 294 -25z m1110 22 c26 -5 27 -8 31 -87 2 -45 2 -88 0 -94 -7 -21 -22
-4 -22 25 0 15 -12 40 -27 57 -26 30 -27 30 -178 39 -84 5 -159 6 -168 3 -15
-6 -17 -27 -17 -166 0 -148 1 -160 19 -166 32 -10 231 2 247 16 8 6 19 31 25
55 8 33 16 44 30 44 18 0 19 -9 19 -131 0 -123 -10 -177 -30 -164 -4 3 -11 23
-15 45 -12 68 -37 80 -176 80 l-119 0 0 -175 c0 -217 -12 -204 180 -196 152 7
177 17 219 91 11 20 28 43 36 50 32 27 34 -5 7 -100 l-28 -95 -324 0 c-278 0
-325 2 -325 15 0 8 14 17 34 21 64 13 62 0 64 393 l2 357 -25 19 c-14 11 -36
20 -50 20 -33 0 -54 15 -48 32 5 11 61 14 309 15 167 1 316 0 330 -3z m756
-31 c25 -62 63 -144 98 -213 18 -36 51 -112 74 -170 23 -58 48 -118 56 -135 7
-16 28 -66 46 -110 34 -84 83 -164 102 -170 51 -14 53 -16 35 -29 -23 -17
-300 -16 -305 1 -3 7 12 19 31 27 24 10 36 22 36 35 0 28 -58 193 -70 201 -16
10 -313 12 -327 2 -25 -16 -74 -145 -71 -186 3 -37 7 -42 36 -51 21 -6 32 -15
30 -25 -3 -12 -23 -15 -122 -15 -132 0 -153 10 -92 45 46 28 98 112 136 221
10 32 37 95 58 141 80 170 91 195 115 264 14 39 34 89 45 110 11 22 25 51 31
67 15 38 39 34 58 -10z m1108 25 c17 -2 35 -6 40 -9 6 -4 25 -10 44 -14 88
-19 186 -98 227 -181 68 -139 70 -278 7 -429 -25 -59 -96 -138 -150 -168 -93
-50 -175 -62 -427 -62 -171 0 -230 3 -233 12 -3 8 13 17 42 24 25 6 50 19 55
29 7 12 15 573 11 703 -1 25 -37 57 -64 57 -29 0 -62 23 -54 37 6 9 406 10
502 1z m3410 0 c2 -2 5 -43 6 -93 3 -76 1 -90 -13 -93 -11 -2 -18 7 -22 32 -4
20 -18 48 -30 63 -22 25 -32 28 -113 34 -52 4 -93 2 -100 -4 -10 -7 -13 -93
-13 -367 l0 -359 26 -20 c15 -12 41 -21 59 -21 38 0 49 -8 34 -27 -9 -10 -44
-12 -173 -7 -88 3 -167 7 -174 10 -21 6 -3 24 24 24 37 0 61 16 72 49 11 32 9
691 -2 710 -4 7 -40 11 -91 11 -97 0 -126 -16 -149 -85 -24 -70 -41 -51 -41
45 0 47 4 91 9 98 7 9 83 11 348 8 187 -3 341 -6 343 -8z m1825 -19 c126 -58
173 -197 107 -314 -25 -44 -109 -105 -144 -105 -33 0 -28 -18 23 -85 25 -33
67 -89 92 -125 74 -101 154 -180 185 -180 30 0 46 -18 26 -31 -8 -5 -61 -7
-119 -5 -85 4 -107 8 -115 21 -5 10 -32 47 -59 84 -27 36 -80 111 -116 166
-37 55 -74 106 -83 113 -9 8 -33 12 -54 10 l-38 -3 1 -159 c0 -153 1 -159 23
-177 13 -11 39 -19 58 -19 27 0 34 -4 31 -17 -3 -16 -20 -18 -178 -18 -149 0
-175 2 -175 15 0 10 12 16 32 18 20 2 40 13 53 29 19 25 20 39 20 373 l0 348
-31 26 c-17 14 -39 26 -49 26 -20 0 -34 15 -26 28 2 4 112 7 243 7 233 -1 239
-1 293 -26z m1135 -59 c0 -69 -3 -85 -15 -85 -9 0 -16 11 -18 31 -2 18 -14 42
-28 55 -24 23 -34 24 -178 28 -132 3 -155 1 -169 -14 -14 -14 -17 -39 -17
-155 0 -76 3 -145 6 -154 5 -13 26 -16 124 -16 112 0 120 1 148 25 18 15 32
39 36 60 7 36 24 55 35 37 3 -5 6 -75 5 -154 0 -113 -3 -143 -14 -143 -8 0
-17 14 -22 30 -4 17 -21 44 -38 60 -30 29 -36 30 -131 33 -55 2 -111 1 -125
-2 l-24 -6 0 -151 c0 -115 4 -157 15 -179 l16 -30 142 0 c136 0 144 1 180 25
20 14 53 50 72 81 59 92 72 52 27 -81 l-28 -79 -324 -1 c-279 0 -325 2 -325
15 0 8 15 18 38 23 20 5 41 17 46 26 7 13 17 630 12 714 -1 21 -57 57 -88 57
-24 0 -41 19 -25 29 5 3 158 6 339 6 l328 -1 0 -84z m-4767 -677 c12 -13 22
-33 22 -44 0 -28 -53 -79 -82 -79 -34 1 -67 30 -74 67 -5 27 -1 37 24 63 36
36 73 34 110 -7z m-787 -2204 c9 -61 79 -285 99 -321 6 -10 10 -29 10 -42 0
-14 16 -98 35 -188 47 -216 59 -473 25 -528 -20 -32 -31 11 -45 161 -16 179
-23 214 -75 369 -21 63 -46 156 -55 205 -9 50 -23 122 -32 160 -21 87 -23 211
-5 244 19 33 31 16 43 -60z m-4846 -506 c102 -104 171 -211 216 -335 40 -107
47 -145 64 -312 18 -176 20 -184 57 -243 17 -26 43 -66 57 -88 42 -65 135
-175 149 -175 19 0 14 31 -12 77 -29 50 -110 294 -125 376 -6 32 -13 61 -15
65 -8 13 25 356 35 367 13 13 31 -9 74 -90 21 -38 45 -81 54 -95 21 -31 51
-104 80 -193 39 -116 25 -336 -31 -484 l-20 -55 22 -41 c27 -47 134 -191 168
-225 28 -28 29 -52 2 -45 -11 3 -57 53 -102 111 -46 58 -119 145 -164 193 -45
48 -100 118 -123 156 -82 131 -132 193 -157 193 -15 0 -134 79 -134 90 0 3 -8
15 -17 26 -34 37 -79 109 -110 174 -25 53 -33 91 -47 205 -16 141 -23 385 -11
405 11 18 24 11 90 -57z m9047 1 c11 -89 11 -320 -1 -401 -12 -86 -67 -219
-115 -277 -79 -96 -160 -166 -189 -166 -7 0 -23 -10 -34 -22 -25 -29 -143
-206 -143 -216 0 -4 -30 -41 -67 -83 -38 -41 -84 -95 -103 -118 -164 -202
-280 -309 -280 -258 0 6 32 46 71 87 85 90 143 166 181 237 31 58 30 64 -15
125 -25 34 -38 97 -44 224 -4 88 -1 115 22 200 32 122 64 203 122 314 62 116
69 123 87 79 25 -60 39 -223 33 -365 -8 -156 -31 -251 -88 -363 -42 -82 -47
-101 -25 -101 16 0 88 77 127 136 106 159 108 165 113 331 7 198 46 328 151
501 42 70 164 204 180 199 5 -2 13 -30 17 -63z"/>
<path d="M4580 15123 c-18 -29 -37 -53 -41 -53 -5 0 -9 -6 -9 -13 0 -7 -16
-36 -35 -64 -19 -29 -35 -57 -35 -63 0 -6 -7 -21 -16 -35 -12 -18 -13 -28 -4
-45 14 -27 21 -22 50 37 13 26 41 76 62 111 21 34 38 70 38 80 0 10 7 28 16
40 8 12 14 30 12 40 -3 12 -14 2 -38 -35z"/>
<path d="M3130 11780 c0 -5 6 -10 14 -10 8 0 18 5 21 10 3 6 -3 10 -14 10 -12
0 -21 -4 -21 -10z"/>
<path d="M13290 7031 c-126 -39 -184 -122 -206 -296 -29 -223 24 -389 146
-462 145 -87 308 -3 367 189 17 56 22 214 9 278 -18 83 -58 189 -84 217 -31
35 -136 83 -178 82 -16 0 -40 -4 -54 -8z"/>
<path d="M6105 7013 c-83 -10 -76 7 -73 -181 l3 -167 49 -3 c86 -6 176 41 212
110 8 15 14 53 14 84 0 46 -5 64 -26 91 -26 34 -100 74 -132 72 -9 -1 -30 -4
-47 -6z"/>
<path d="M8103 6828 c-5 -7 -27 -53 -47 -103 -21 -49 -45 -105 -53 -124 -14
-31 -14 -35 1 -46 18 -14 239 -15 252 -2 4 4 -9 40 -28 80 -20 39 -46 95 -58
122 -37 86 -47 98 -67 73z"/>
<path d="M9120 7008 c-25 -5 -51 -15 -57 -20 -10 -8 -13 -93 -13 -364 0 -402
-7 -374 88 -374 88 0 216 56 279 122 52 55 109 270 83 318 -5 10 -10 32 -10
48 0 27 -38 112 -71 160 -27 38 -103 88 -154 101 -77 19 -96 20 -145 9z"/>
<path d="M14240 6990 c-6 -12 -9 -78 -8 -172 l3 -153 49 -3 c33 -2 69 4 107
19 48 17 64 30 89 67 39 59 46 99 25 148 -34 81 -89 114 -191 114 -53 0 -65
-3 -74 -20z"/>
<path d="M5290 3239 c0 -43 67 -188 132 -286 15 -23 28 -44 28 -48 0 -12 54
-74 61 -69 4 2 -1 23 -10 46 -17 42 -23 54 -88 165 -18 31 -33 61 -33 68 0 7
-9 24 -20 38 -11 14 -20 34 -20 44 0 21 -27 63 -41 63 -5 0 -9 -9 -9 -21z"/>
<path d="M5797 2694 c-8 -8 3 -66 14 -78 5 -6 9 4 9 25 0 36 -12 64 -23 53z"/>
<path d="M14123 3143 c-30 -42 -113 -213 -113 -234 0 -26 8 -24 33 7 30 39
117 213 117 235 0 27 -13 24 -37 -8z"/>
<path d="M13722 2940 c0 -14 2 -19 5 -12 2 6 2 18 0 25 -3 6 -5 1 -5 -13z"/>
<path d="M13672 2708 c-25 -150 -27 -191 -10 -186 19 7 40 97 45 195 8 148
-10 143 -35 -9z"/>
<path d="M13718 16053 c6 -11 30 -33 54 -49 245 -165 318 -242 405 -424 47
-99 63 -155 68 -242 5 -80 31 -150 90 -243 27 -43 234 -241 340 -325 22 -17
85 -74 141 -126 55 -52 125 -112 155 -135 30 -22 79 -66 109 -97 31 -31 93
-88 138 -126 45 -38 82 -72 82 -75 0 -3 30 -37 66 -76 36 -38 80 -86 98 -105
18 -19 74 -85 125 -147 122 -147 152 -161 108 -51 -33 82 -41 114 -31 130 4 7
9 71 9 143 3 197 33 288 142 433 39 51 88 93 166 142 39 24 56 41 57 56 0 30
-19 35 -117 33 -139 -3 -149 14 -162 261 -9 162 -21 210 -61 250 -35 35 -50
20 -44 -42 3 -29 10 -69 15 -88 13 -51 11 -159 -5 -283 -15 -112 -11 -102
-134 -342 -29 -57 -30 -63 -21 -124 5 -35 20 -98 34 -140 68 -209 79 -250 72
-257 -8 -9 -69 127 -129 291 -35 95 -46 116 -88 155 -66 61 -111 166 -135 309
-26 163 -17 233 28 215 19 -7 36 -49 72 -179 50 -176 95 -268 121 -242 4 4 -5
51 -20 104 -38 135 -46 184 -47 283 0 129 38 218 144 338 21 23 35 47 32 52
-9 15 -58 12 -82 -5 -34 -24 -121 -138 -142 -187 -33 -78 -97 -109 -149 -72
-13 9 -47 66 -77 127 -130 268 -289 456 -401 474 -30 5 -34 3 -34 -15 0 -12 7
-25 15 -29 8 -5 39 -32 69 -61 31 -28 60 -52 65 -52 6 0 16 -10 22 -22 7 -13
33 -50 59 -83 51 -65 90 -140 90 -171 0 -11 4 -24 9 -29 32 -35 69 -251 70
-400 0 -61 7 -82 82 -242 16 -34 29 -64 29 -67 0 -2 16 -32 35 -66 34 -60 44
-100 26 -100 -27 0 -64 66 -147 262 -36 85 -54 114 -84 138 -21 16 -41 30 -45
30 -17 0 -88 65 -133 123 -84 105 -174 321 -192 460 -8 64 -11 177 -8 258 3
68 -24 74 -133 29 -111 -46 -142 -51 -174 -30 -15 10 -81 71 -148 137 -211
205 -371 320 -463 331 -44 5 -46 4 -36 -15z"/>
<path d="M12470 15990 c-18 -11 -24 -7 90 -69 52 -28 102 -56 110 -61 8 -5 38
-22 65 -39 84 -49 175 -120 175 -136 0 -17 -27 -20 -49 -6 -15 10 -41 4 -41
-9 0 -11 60 -45 106 -60 21 -7 50 -19 64 -26 29 -15 260 -33 322 -25 35 5 44
10 46 29 3 18 -19 45 -96 121 -123 122 -188 157 -319 171 -98 10 -173 25 -200
38 -10 5 -52 20 -93 32 -41 13 -92 29 -113 36 -44 16 -47 17 -67 4z"/>
<path d="M6875 15959 c-75 -30 -211 -69 -290 -84 -194 -37 -236 -57 -348 -170
-27 -27 -58 -67 -69 -88 -18 -36 -18 -40 -3 -57 12 -13 29 -17 69 -15 30 1 59
6 65 9 6 4 38 11 72 17 87 14 219 81 219 111 0 20 78 90 128 114 20 9 57 31
82 48 59 40 75 50 133 82 86 49 43 73 -58 33z"/>
<path d="M13960 15638 c0 -26 39 -96 80 -143 22 -26 65 -84 95 -130 59 -90 72
-104 81 -82 10 28 -96 198 -165 263 -17 16 -31 33 -31 39 0 6 -13 23 -30 38
-19 18 -30 23 -30 15z"/>
<path d="M5450 15558 c-13 -18 -29 -40 -36 -48 -67 -76 -102 -141 -92 -170 4
-14 170 204 172 226 2 30 -19 25 -44 -8z"/>
<path d="M14850 15191 c4 -16 14 -40 22 -54 44 -82 58 -109 87 -167 17 -36 36
-72 41 -80 6 -8 15 -26 21 -40 11 -26 26 -40 45 -40 20 0 -2 83 -40 155 -38
69 -85 145 -97 155 -4 3 -10 15 -13 28 -9 27 -49 72 -64 72 -7 0 -8 -10 -2
-29z"/>
<path d="M15516 14942 c-4 -7 -26 -193 -26 -223 0 -23 17 -5 32 34 20 51 28
188 11 194 -6 2 -14 0 -17 -5z"/>
<path d="M3946 14921 c-4 -6 0 -64 9 -128 20 -150 23 -163 35 -163 12 0 12
140 1 218 -8 54 -33 94 -45 73z"/>
<path d="M5602 14780 c-19 -4 -67 -11 -108 -15 -86 -8 -128 -31 -105 -59 15
-18 63 -21 91 -6 17 9 156 35 233 43 32 4 52 21 43 36 -8 12 -104 13 -154 1z"/>
<path d="M13660 14781 c0 -17 17 -22 133 -42 61 -10 135 -25 162 -33 80 -23
132 -26 147 -9 10 12 9 18 -7 29 -27 20 -73 31 -210 49 -135 17 -225 19 -225
6z"/>
<path d="M16082 14708 c-7 -7 -12 -23 -12 -37 0 -15 -9 -83 -19 -153 -16 -108
-24 -139 -61 -212 -37 -74 -58 -100 -156 -196 -103 -100 -114 -114 -115 -148
-2 -57 1 -70 32 -167 42 -129 55 -152 120 -226 32 -36 74 -89 93 -117 19 -29
41 -59 48 -67 7 -8 18 -20 24 -27 6 -7 37 -45 70 -83 132 -156 200 -247 337
-452 79 -118 181 -268 222 -324 22 -30 49 -76 60 -102 34 -79 56 -50 36 47 -7
34 -17 99 -22 146 -22 209 -19 198 -59 243 -47 53 -81 113 -120 207 -55 132
-89 245 -90 300 0 14 -8 37 -17 50 -10 14 -16 38 -14 56 1 20 -3 35 -12 41
-18 10 -67 155 -67 198 0 18 -6 44 -13 58 -16 30 -14 154 3 217 29 109 35 128
57 175 12 28 39 79 59 115 87 154 88 150 -36 171 -182 32 -219 58 -240 167
-18 94 -73 155 -108 120z m173 -952 c8 -19 19 -37 24 -40 5 -4 17 -30 27 -59
19 -60 60 -145 80 -167 7 -9 13 -24 13 -35 0 -11 2 -38 6 -60 3 -22 1 -47 -4
-55 -8 -12 -14 -11 -36 10 -55 52 -107 159 -143 295 -15 56 -23 124 -17 136
13 19 37 8 50 -25z"/>
<path d="M2868 14363 c-66 -69 -126 -205 -172 -394 -14 -57 -32 -110 -40 -118
-8 -8 -37 -26 -63 -40 -59 -33 -60 -50 -9 -154 129 -268 173 -410 181 -591 8
-153 10 -166 35 -166 11 0 20 5 20 11 0 6 13 39 29 73 83 173 97 216 121 348
10 52 9 62 -9 91 -26 43 -71 153 -83 202 -25 110 -30 153 -30 310 -1 183 9
235 68 363 46 101 20 136 -48 65z"/>
<path d="M3630 14375 c0 -14 3 -25 8 -25 11 0 42 -59 42 -80 0 -10 5 -22 11
-26 6 -3 17 -22 25 -40 8 -19 19 -34 24 -34 12 0 13 67 1 74 -5 3 -12 21 -15
39 -3 18 -20 47 -36 65 -17 18 -30 37 -30 43 0 5 -7 9 -15 9 -9 0 -15 -9 -15
-25z"/>
<path d="M16570 14370 c0 -6 4 -18 10 -28 5 -9 22 -57 37 -107 25 -84 27 -102
28 -280 0 -184 -1 -192 -29 -270 -15 -44 -35 -93 -43 -109 -29 -56 -73 -171
-73 -191 0 -10 6 -37 14 -60 7 -22 23 -74 36 -115 12 -41 28 -88 35 -105 7
-16 25 -59 39 -94 47 -116 60 -140 79 -141 15 0 17 12 17 110 0 189 38 322
155 547 42 80 80 164 85 187 5 22 11 50 15 61 5 17 -2 25 -37 44 -86 47 -105
68 -151 165 -25 52 -55 129 -67 173 -28 97 -41 124 -92 179 -40 43 -58 54 -58
34z"/>
<path d="M15781 14266 c-43 -91 -65 -166 -52 -179 5 -5 18 6 29 25 39 63 103
211 98 224 -13 33 -37 10 -75 -70z"/>
<path d="M5073 14328 c-39 -8 -57 -29 -35 -41 11 -7 240 8 248 16 4 3 2 13 -4
20 -14 16 -143 19 -209 5z"/>
<path d="M14170 14325 c-24 -29 0 -35 129 -35 102 0 131 3 141 15 7 8 20 16
29 16 43 4 -96 17 -185 18 -78 1 -104 -2 -114 -14z"/>
<path d="M14830 13991 c-8 -6 -33 -11 -56 -11 -22 0 -49 -7 -60 -15 -10 -8
-30 -15 -44 -15 -14 0 -32 -5 -40 -11 -11 -7 15 -8 90 -4 58 4 137 8 177 10
40 2 80 8 89 13 16 9 15 11 -4 21 -30 16 -134 24 -152 12z"/>
<path d="M2974 13976 c-3 -8 2 -74 11 -147 9 -73 16 -177 16 -231 1 -77 4 -98
15 -98 61 0 62 221 3 423 -20 65 -34 82 -45 53z"/>
<path d="M4580 13970 c-58 -3 -116 -10 -128 -16 -21 -9 -22 -11 -8 -23 13 -11
43 -12 129 -8 124 5 149 12 145 36 -4 19 -5 19 -138 11z"/>
<path d="M16485 13972 c-38 -26 -74 -394 -42 -436 23 -31 37 -10 37 55 0 33 4
79 9 102 5 23 15 91 21 151 9 88 9 112 -2 122 -7 7 -18 10 -23 6z"/>
<path d="M17017 13763 c-10 -9 -9 -67 1 -78 22 -25 55 -340 46 -435 -7 -68
-26 -154 -41 -186 -6 -11 -23 -46 -39 -78 -26 -54 -91 -127 -183 -208 -31 -26
-31 -28 -31 -125 0 -54 7 -122 15 -153 8 -30 15 -68 15 -85 1 -61 57 -260 90
-314 17 -30 39 -73 47 -95 9 -23 21 -48 28 -56 6 -8 20 -33 29 -55 19 -44 85
-174 96 -190 3 -5 19 -41 35 -80 51 -127 107 -259 125 -300 44 -97 60 -139 60
-155 0 -9 8 -28 18 -41 36 -47 62 -101 62 -126 0 -14 15 -71 34 -127 19 -55
51 -157 72 -226 37 -126 50 -149 70 -127 18 20 39 138 39 215 0 59 3 73 17 77
15 6 48 81 48 113 0 32 78 142 156 218 108 106 112 120 46 187 -96 99 -96 112
6 342 17 39 40 111 51 160 10 50 26 113 34 142 36 127 28 263 -21 347 -33 57
-39 43 -40 -91 -1 -135 -22 -263 -59 -359 -38 -99 -218 -382 -282 -444 -35
-34 -40 -45 -45 -102 -16 -160 -15 -196 5 -214 11 -10 19 -30 19 -49 0 -18 7
-49 15 -68 16 -39 20 -87 7 -87 -14 0 -52 89 -52 121 0 16 -9 48 -20 70 -19
37 -20 51 -14 177 7 146 0 189 -57 322 -23 55 -64 211 -89 343 -17 88 -24 103
-60 144 -51 58 -91 175 -97 289 -6 92 9 157 35 152 26 -5 82 -187 91 -295 4
-51 11 -96 15 -100 23 -23 66 59 66 128 0 21 13 60 30 92 29 55 80 218 80 257
0 29 -23 20 -30 -11 -3 -13 -20 -55 -38 -92 -18 -38 -32 -73 -32 -77 0 -18
-43 -80 -55 -80 -13 0 -27 163 -21 240 3 39 65 169 102 213 13 16 24 33 24 38
0 5 4 15 10 22 35 42 120 162 120 168 0 4 -9 10 -19 14 -24 7 -88 -23 -156
-75 -27 -21 -63 -44 -80 -51 -16 -8 -51 -26 -77 -42 -73 -44 -96 -30 -116 69
-9 40 -8 80 3 170 25 199 16 372 -26 526 -20 73 -65 139 -82 121z"/>
<path d="M2441 13743 c-20 -17 -58 -112 -83 -208 -6 -24 -8 -94 -5 -175 6
-127 9 -143 51 -269 25 -74 57 -153 70 -177 49 -87 42 -130 -30 -194 -73 -64
-134 -75 -183 -34 -30 25 -124 157 -166 233 -48 85 -62 103 -93 121 -41 25
-62 25 -62 3 0 -19 9 -35 75 -128 147 -208 180 -299 171 -458 -9 -143 -12
-162 -27 -162 -9 0 -15 13 -17 35 -2 19 -10 42 -17 50 -7 8 -17 27 -20 43 -4
15 -11 30 -16 33 -5 3 -9 16 -9 28 0 13 -6 29 -14 35 -8 7 -17 24 -21 39 -8
35 -39 77 -52 69 -7 -4 -2 -30 12 -71 12 -35 26 -81 30 -102 9 -53 62 -164 91
-193 18 -18 24 -35 24 -67 0 -32 4 -44 14 -44 18 0 46 38 46 61 0 9 9 42 21
75 12 32 25 94 29 138 8 78 19 99 50 93 9 -2 14 -12 12 -27 -1 -14 -4 -43 -6
-65 -4 -38 -14 -92 -35 -179 -5 -21 -14 -43 -20 -49 -6 -6 -11 -18 -11 -27 0
-8 -16 -40 -36 -70 -30 -45 -36 -63 -35 -101 1 -28 -13 -93 -34 -165 -20 -66
-40 -139 -45 -164 -5 -25 -25 -92 -45 -150 -29 -82 -38 -125 -41 -195 -7 -137
-21 -278 -29 -297 -4 -10 -12 -18 -18 -18 -10 0 -7 78 9 282 l7 77 -46 47
c-63 64 -187 258 -187 293 0 9 -8 21 -18 27 -10 6 -33 42 -51 80 -18 38 -37
77 -42 86 -23 45 -49 204 -49 300 0 150 -21 171 -40 42 -6 -38 -13 -87 -16
-109 -10 -65 49 -292 102 -390 52 -99 144 -330 144 -361 0 -34 -17 -72 -37
-83 -10 -5 -50 -12 -88 -16 -118 -12 -118 -22 6 -148 44 -45 93 -101 109 -125
45 -68 99 -217 114 -317 13 -85 30 -162 42 -195 4 -12 11 -8 30 15 13 17 24
38 24 49 0 21 58 201 100 311 15 39 35 97 44 130 10 33 23 76 31 95 29 75 66
166 80 195 15 32 15 33 100 235 49 116 140 312 166 360 142 257 171 341 197
570 11 91 20 170 22 175 1 6 2 36 1 68 -1 49 -5 60 -28 80 -62 51 -101 96
-143 167 -25 41 -47 79 -49 85 -2 5 -9 24 -16 40 -41 95 -63 271 -45 365 4 25
14 79 21 120 6 41 17 98 24 125 18 74 2 95 -44 58z m-480 -2800 c-9 -15 -10
-13 -11 13 0 17 3 34 8 38 11 12 14 -32 3 -51z"/>
<path d="M2550 13330 c0 -5 5 -10 10 -10 6 0 10 5 10 10 0 6 -4 10 -10 10 -5
0 -10 -4 -10 -10z"/>
<path d="M2580 13268 c0 -13 12 -54 26 -93 14 -38 28 -81 31 -95 7 -35 45
-120 54 -120 30 0 2 120 -62 258 -34 74 -49 89 -49 50z"/>
<path d="M16883 13238 c-12 -15 -63 -142 -63 -156 0 -6 -6 -23 -14 -39 -38
-76 -50 -183 -21 -183 9 0 17 6 19 13 12 45 70 225 77 238 9 20 24 139 17 139
-3 0 -10 -6 -15 -12z"/>
<path d="M15233 13212 c-39 -6 -25 -27 25 -40 66 -18 138 -38 202 -57 88 -26
140 -31 140 -13 0 28 -56 53 -185 83 -94 22 -155 31 -182 27z"/>
<path d="M4060 13183 c-30 -8 -59 -19 -64 -24 -6 -5 -22 -9 -36 -9 -31 0 -66
-23 -57 -38 8 -11 85 -5 102 9 6 4 31 11 54 15 57 9 134 39 139 53 5 16 -70
13 -138 -6z"/>
<path d="M1843 13028 c-24 -26 -67 -130 -82 -198 -6 -25 -11 -109 -11 -187 0
-78 -4 -153 -9 -167 -6 -15 -27 -32 -56 -45 -42 -19 -45 -22 -39 -48 4 -15 43
-66 87 -113 79 -85 124 -162 173 -295 10 -27 24 -61 31 -75 7 -14 13 -40 13
-58 0 -18 5 -42 11 -53 13 -25 42 -189 34 -197 -3 -3 -11 0 -17 6 -20 20 -28
13 -18 -14 6 -14 10 -35 10 -47 0 -12 5 -29 10 -37 9 -13 12 -12 25 4 8 11 15
34 15 51 0 17 9 48 20 70 11 22 20 46 20 54 0 12 34 138 61 227 5 17 9 65 9
107 0 89 -15 119 -99 200 -55 54 -131 173 -142 227 -4 19 -13 55 -20 80 -7 26
-12 109 -12 195 0 129 3 159 22 215 33 98 13 151 -36 98z"/>
<path d="M17606 13014 c-4 -9 2 -40 12 -68 26 -69 35 -205 22 -313 -14 -110
-40 -233 -55 -253 -6 -8 -20 -32 -30 -53 -20 -37 -69 -94 -133 -150 -34 -30
-52 -79 -52 -142 0 -45 34 -227 50 -269 5 -15 10 -40 10 -55 0 -16 12 -55 26
-87 15 -33 30 -72 33 -89 10 -45 41 -40 56 10 7 22 25 64 39 92 14 29 26 59
26 65 0 7 13 40 29 74 16 34 32 75 36 93 11 53 -19 37 -49 -26 -15 -32 -32
-65 -37 -73 -17 -29 -39 -83 -39 -96 0 -16 -42 -83 -53 -84 -8 0 -3 60 14 170
9 56 38 138 95 270 34 77 51 102 146 211 55 63 104 122 109 132 15 28 2 51
-41 76 -68 38 -82 78 -90 271 -5 138 -10 174 -29 220 -12 30 -30 63 -38 73
-20 22 -49 22 -57 1z"/>
<path d="M7830 12726 c-41 -12 -71 -24 -200 -86 -52 -24 -58 -28 -165 -96 -44
-28 -117 -80 -162 -115 -46 -35 -102 -78 -125 -96 -24 -17 -62 -49 -85 -70
-24 -21 -66 -56 -94 -78 -29 -22 -84 -71 -124 -110 -39 -38 -136 -132 -216
-208 -79 -77 -171 -169 -203 -205 -33 -37 -127 -138 -210 -225 -83 -87 -155
-166 -160 -175 -9 -17 -57 -70 -210 -232 -45 -48 -131 -144 -193 -215 -61 -72
-173 -197 -248 -280 -75 -82 -163 -184 -196 -225 -34 -41 -92 -109 -130 -150
-101 -110 -129 -144 -129 -157 0 -13 43 -27 145 -48 63 -13 203 -50 320 -85
39 -11 108 -30 155 -42 47 -11 128 -33 180 -48 93 -26 115 -32 254 -67 l68
-17 20 27 c11 15 36 57 55 94 49 93 227 388 300 498 33 50 69 106 79 124 23
40 26 46 88 141 27 41 83 127 124 190 70 107 136 206 228 342 22 31 83 121
137 200 54 78 113 163 132 188 18 25 34 49 34 54 1 4 13 23 29 41 50 60 300
437 407 614 6 9 19 30 31 46 37 54 139 247 168 319 9 21 16 60 16 87 0 38 -4
51 -22 63 -26 19 -37 19 -98 2z"/>
<path d="M3385 12428 c-78 -20 -126 -41 -136 -60 -10 -18 -7 -18 43 -12 47 6
75 12 178 42 14 4 25 14 25 22 0 19 -53 22 -110 8z"/>
<path d="M15940 12431 c0 -5 8 -11 18 -15 9 -3 24 -10 32 -15 25 -15 169 -45
219 -45 40 -1 46 2 46 19 0 16 -9 21 -40 27 -22 3 -76 13 -120 22 -90 17 -155
20 -155 7z"/>
<path d="M1775 11939 c-4 -5 -1 -18 7 -27 8 -9 23 -35 32 -57 40 -89 100 -203
116 -219 18 -18 10 18 -15 69 -13 28 -25 57 -25 66 0 21 -58 131 -76 145 -8 6
-14 16 -14 23 0 14 -17 14 -25 0z"/>
<path d="M16302 11809 c3 -8 8 -13 11 -11 9 3 7 11 -5 18 -6 4 -8 0 -6 -7z"/>
<path d="M16373 11792 c-44 -4 -42 -20 5 -27 20 -4 49 -11 64 -17 27 -10 48
-5 48 13 0 5 -9 9 -19 9 -11 0 -22 4 -25 9 -8 12 -35 17 -73 13z"/>
<path d="M2818 11496 c-25 -13 -59 -27 -75 -31 -31 -7 -53 -23 -53 -36 0 -14
77 -10 89 5 6 7 39 19 72 25 35 7 62 18 66 27 13 34 -41 39 -99 10z"/>
<path d="M16550 11512 c0 -23 51 -50 108 -56 32 -4 68 -13 79 -21 16 -11 28
-13 47 -5 38 14 32 30 -11 30 -20 0 -45 7 -54 16 -27 24 -169 54 -169 36z"/>
<path d="M17751 10934 c-12 -15 -21 -31 -21 -37 0 -6 -6 -18 -14 -26 -18 -21
-29 -71 -16 -71 10 0 60 73 60 89 0 5 6 14 14 20 8 6 16 21 19 31 7 29 -18 25
-42 -6z"/>
<path d="M1710 10935 c0 -14 53 -118 72 -142 14 -17 28 -16 28 1 0 25 -73 156
-87 156 -7 0 -13 -7 -13 -15z"/>
<path d="M11165 10264 c-69 -16 -101 -30 -152 -64 -24 -17 -46 -30 -49 -30
-19 0 -192 -162 -282 -262 -110 -124 -272 -341 -272 -365 0 -17 7 -17 94 7 95
25 159 50 271 106 189 93 279 154 386 259 132 131 190 264 142 324 -25 30 -77
40 -138 25z"/>
<path d="M13259 10257 c-149 -42 -448 -303 -637 -557 -31 -41 -68 -90 -84
-108 -27 -32 -38 -72 -18 -72 5 0 33 7 62 15 186 50 396 150 573 270 74 51
190 179 247 273 53 87 58 121 24 167 -17 23 -104 30 -167 12z"/>
<path d="M3149 9966 c-2 -3 -33 -5 -69 -7 -182 -5 -507 -56 -780 -121 -251
-59 -310 -78 -535 -166 -187 -73 -411 -193 -560 -299 -33 -24 -78 -55 -99 -69
-66 -44 -319 -305 -368 -379 -60 -91 -161 -304 -181 -380 -28 -107 -42 -270
-29 -321 7 -24 12 -53 12 -64 0 -30 40 -140 65 -180 106 -167 400 -289 699
-290 55 0 125 5 155 10 31 6 108 19 171 31 290 52 611 181 912 367 35 21 106
65 158 97 52 32 169 115 259 184 90 69 174 133 187 141 44 29 139 105 164 131
14 15 70 67 125 115 55 49 102 91 105 94 3 4 43 40 90 81 157 137 757 734 827
824 22 28 47 56 56 64 51 41 24 47 -443 100 -208 24 -906 52 -921 37z"/>
<path d="M8205 8708 c-428 -137 -546 -192 -652 -300 -57 -59 -78 -111 -59
-149 42 -85 227 -102 386 -36 172 71 299 197 381 377 64 141 62 146 -56 108z"/>
<path d="M14500 8686 c-83 -22 -204 -62 -345 -113 -64 -23 -114 -46 -181 -81
-41 -22 -134 -119 -149 -157 -14 -31 -14 -39 0 -64 33 -64 127 -98 245 -88 87
8 164 36 247 91 121 79 186 155 257 299 29 58 40 128 21 133 -5 1 -48 -8 -95
-20z"/>
<path d="M3250 5026 c0 -24 45 -113 130 -256 5 -8 11 -23 14 -32 3 -10 12 -18
21 -18 18 0 19 27 2 60 -70 131 -103 187 -139 231 -22 26 -28 30 -28 15z"/>
<path d="M16193 4984 c-3 -9 -19 -30 -35 -47 -33 -37 -105 -177 -114 -226 -5
-23 -3 -36 7 -42 18 -10 59 27 59 54 0 22 85 203 108 229 15 18 10 48 -8 48
-6 0 -13 -7 -17 -16z"/>
<path d="M3779 4588 c0 -2 -3 -60 -5 -130 -5 -124 2 -168 27 -168 7 0 10 35 8
103 -1 56 1 109 5 119 12 28 3 73 -16 76 -10 2 -18 2 -19 0z"/>
<path d="M15657 4513 c-9 -100 4 -207 24 -211 24 -4 31 35 24 141 -8 116 -12
137 -29 137 -9 0 -15 -20 -19 -67z"/>
<path d="M15207 4263 c-3 -4 0 -48 5 -98 5 -49 11 -117 13 -149 4 -69 18 -89
40 -60 13 15 15 37 11 109 -7 117 -48 234 -69 198z"/>
<path d="M4234 4248 c-5 -7 -10 -73 -12 -145 -4 -115 -2 -133 11 -133 23 0 28
28 28 162 0 116 -7 148 -27 116z"/>
<path d="M14796 3785 c-3 -8 0 -28 5 -44 13 -36 7 -149 -10 -207 -16 -53 1
-127 27 -122 14 3 19 24 28 123 12 125 10 191 -8 238 -11 29 -32 36 -42 12z"/>
<path d="M4656 3768 c-8 -30 -6 -241 2 -298 9 -59 36 -67 51 -14 8 27 6 51 -4
92 -8 31 -15 91 -15 133 0 78 -6 109 -20 109 -4 0 -10 -10 -14 -22z"/>
<path d="M3265 3741 c-3 -6 5 -15 19 -21 14 -5 26 -13 26 -18 0 -14 92 -54
102 -44 11 11 -56 62 -80 62 -7 0 -23 7 -36 16 -16 10 -26 12 -31 5z"/>
<path d="M16154 3704 c-55 -29 -70 -41 -62 -49 7 -7 102 41 118 60 18 22 -1
18 -56 -11z"/>
<path d="M16326 3263 c-148 -76 -388 -115 -518 -85 -35 8 -89 17 -121 19 l-57
5 -90 -89 c-50 -49 -90 -94 -90 -100 0 -20 41 -26 185 -27 l140 -1 75 -38 c41
-20 90 -48 109 -62 19 -14 39 -24 45 -22 7 2 10 32 7 80 -3 76 -3 78 29 107
18 17 105 66 194 110 170 84 224 119 212 138 -11 18 -23 14 -120 -35z"/>
<path d="M3550 3293 c0 -5 20 -18 44 -29 32 -16 53 -20 76 -15 27 5 30 8 18
18 -25 21 -138 42 -138 26z"/>
<path d="M15845 3291 c-34 -9 -75 -32 -75 -43 0 -15 91 -8 128 9 20 9 46 20
57 24 16 6 14 7 -10 8 -16 1 -39 3 -50 5 -11 3 -33 1 -50 -3z"/>
<path d="M3040 3282 c0 -13 31 -38 75 -59 45 -22 279 -103 368 -128 32 -9 60
-22 63 -30 4 -8 -19 -55 -50 -103 -31 -49 -56 -96 -56 -104 0 -30 14 -27 50
11 65 67 194 118 354 141 83 12 143 8 214 -16 24 -8 48 -11 54 -8 12 8 -59 74
-127 119 -27 18 -66 45 -85 60 -19 14 -54 35 -78 46 l-43 20 -67 -28 c-61 -25
-77 -28 -178 -26 -64 1 -138 8 -173 17 -35 9 -75 16 -89 16 -15 0 -36 7 -46
15 -11 8 -27 15 -36 15 -9 0 -39 11 -66 25 -50 25 -84 32 -84 17z"/>
<path d="M15374 2954 c-27 -14 -58 -34 -70 -45 -24 -23 -180 -89 -210 -89 -21
0 -68 -42 -58 -52 3 -4 75 -4 160 -1 l155 6 77 -39 c56 -28 99 -60 156 -117
43 -43 85 -77 94 -75 8 2 27 32 41 68 l26 65 94 47 c52 26 104 57 115 69 l21
21 -33 -6 c-18 -3 -74 -9 -125 -12 -103 -7 -193 10 -256 48 -41 25 -51 36 -51
60 0 20 -41 64 -68 72 -11 4 -39 -5 -68 -20z"/>
<path d="M4080 2913 c-8 -3 -64 -30 -125 -61 -125 -62 -180 -71 -305 -52 -117
18 -180 23 -180 13 0 -16 86 -61 167 -87 45 -15 87 -34 94 -42 6 -8 11 -33 11
-57 -1 -58 15 -103 44 -126 35 -27 102 -39 297 -50 176 -11 223 -23 252 -65
19 -26 19 -87 0 -112 -8 -10 -15 -29 -15 -41 0 -34 46 -30 90 7 19 17 43 30
53 30 10 0 30 6 45 14 38 19 168 40 227 37 89 -5 244 -41 314 -72 25 -12 71
-32 101 -46 61 -27 118 -63 168 -105 33 -28 33 -28 187 -28 125 0 155 -3 155
-14 0 -10 -33 -15 -147 -21 -82 -4 -191 -5 -243 -3 -52 1 -135 1 -185 -1 -187
-7 -302 -5 -365 8 -72 15 -179 48 -195 61 -16 13 -132 50 -156 50 -69 0 85
-88 291 -167 187 -71 187 -73 45 -167 -110 -72 -115 -76 -115 -91 0 -28 20
-24 116 24 246 122 350 130 628 50 54 -16 119 -29 143 -29 24 0 60 -7 80 -15
43 -18 77 -19 102 -3 20 12 98 2 196 -25 46 -13 237 -138 278 -182 25 -27 34
-30 120 -37 88 -6 144 -2 319 23 81 12 110 28 86 49 -20 17 -71 44 -218 115
-139 68 -246 122 -410 208 -52 27 -142 74 -200 104 -58 31 -115 68 -127 83
-19 23 -134 100 -150 100 -3 0 -51 33 -107 73 -55 39 -120 84 -144 99 -23 15
-64 45 -92 67 -27 21 -82 60 -122 87 -40 26 -75 51 -78 54 -4 6 -122 79 -237
147 -20 12 -65 27 -100 33 -88 15 -141 -4 -219 -78 -54 -53 -172 -122 -206
-122 -8 0 -18 -4 -24 -9 -20 -20 -207 -41 -289 -32 -141 15 -180 48 -111 91
13 8 54 37 91 64 37 27 85 56 108 64 70 25 185 39 327 40 74 1 141 1 148 2 49
1 -52 59 -143 81 -27 6 -54 16 -59 20 -6 5 -20 9 -33 9 -12 0 -38 9 -58 20
-34 19 -92 25 -125 13z"/>
<path d="M14970 2770 c0 -5 7 -10 16 -10 8 0 12 5 9 10 -3 6 -10 10 -16 10 -5
0 -9 -4 -9 -10z"/>
<path d="M14818 2728 c-142 -28 -252 -82 -386 -188 -32 -25 -80 -61 -107 -80
-27 -19 -56 -41 -65 -48 -27 -25 -274 -197 -333 -232 -56 -34 -115 -86 -106
-94 2 -2 74 -7 159 -11 180 -8 187 -9 169 -31 -11 -13 -33 -14 -163 -8 -83 3
-158 10 -167 15 -21 11 -138 -30 -224 -79 -127 -71 -208 -115 -334 -179 -68
-35 -136 -72 -151 -83 -16 -11 -33 -20 -39 -20 -5 0 -34 -14 -63 -31 -29 -17
-74 -40 -101 -50 -26 -11 -66 -28 -89 -40 -38 -19 -39 -22 -24 -37 14 -15 47
-17 220 -20 232 -4 236 -3 338 75 90 70 125 89 214 119 77 25 111 30 244 39
85 6 88 6 137 -1 41 -6 87 5 183 42 80 31 177 47 300 47 142 1 196 -12 340
-82 138 -66 169 -52 75 35 -52 47 -55 53 -48 85 3 19 13 44 22 56 20 27 148
105 221 134 66 27 120 65 120 85 0 16 -69 20 -85 5 -21 -20 -224 -95 -310
-114 -75 -16 -130 -20 -337 -21 -245 -1 -248 -1 -263 -23 -16 -22 -45 -32 -45
-15 0 15 45 51 78 63 36 12 40 23 15 38 -15 8 -14 12 15 39 61 57 297 162 408
181 38 7 87 16 109 20 82 17 255 -22 334 -75 24 -16 55 -37 69 -46 13 -9 31
-14 38 -11 7 2 20 35 28 71 12 53 22 74 49 98 35 33 143 73 252 94 70 14 127
40 122 54 -5 14 -92 20 -126 8 -43 -15 -256 5 -299 29 -20 10 -40 19 -44 19
-17 0 -87 56 -141 112 -72 74 -93 80 -209 56z"/>
<path d="M15100 2703 c0 -17 24 -33 51 -33 15 0 32 -7 39 -15 7 -8 28 -15 47
-15 19 0 46 -6 61 -14 37 -18 109 -28 117 -16 7 12 -7 18 -138 59 -111 35
-177 48 -177 34z"/>
<path d="M4102 2633 c-23 -8 -40 -18 -37 -23 6 -10 83 9 110 27 19 12 19 13
-5 12 -14 0 -44 -7 -68 -16z"/>
<path d="M6212 2553 c-6 -12 -4 -40 4 -78 8 -33 17 -78 20 -100 4 -22 13 -52
20 -67 8 -15 14 -36 14 -46 0 -11 11 -27 24 -35 l24 -16 -5 42 c-3 23 -13 65
-23 92 -37 102 -50 151 -50 182 0 37 -15 51 -28 26z"/>
<path d="M13237 2553 c-4 -3 -7 -30 -7 -58 0 -29 -7 -74 -15 -101 -20 -67 -20
-164 0 -164 10 0 15 10 15 29 0 16 5 42 11 58 14 34 40 223 33 235 -6 10 -28
11 -37 1z"/>
<path d="M6870 2342 c0 -9 11 -27 24 -39 12 -12 47 -72 77 -132 30 -61 59
-109 64 -107 17 5 18 39 1 48 -9 5 -16 13 -16 19 0 12 -90 169 -107 187 -7 7
-13 17 -13 22 0 4 -7 10 -15 14 -10 3 -15 -1 -15 -12z"/>
<path d="M12542 2313 c-38 -49 -100 -169 -108 -211 -5 -27 -4 -32 12 -32 13 1
26 17 42 53 20 44 60 129 94 199 16 34 -11 27 -40 -9z"/>
<path d="M4805 2180 c-3 -5 0 -12 7 -13 7 -2 36 -11 63 -20 67 -21 166 -31
185 -17 13 9 13 11 0 20 -8 5 -25 10 -36 10 -12 0 -39 6 -60 13 -48 17 -150
22 -159 7z"/>
<path d="M14495 2178 c-22 -5 -61 -16 -86 -24 -26 -7 -53 -14 -61 -14 -7 0
-31 -12 -52 -26 -46 -31 -37 -52 16 -36 58 18 150 41 228 56 92 17 133 33 125
46 -7 12 -115 11 -170 -2z"/>
<path d="M5086 2131 c-8 -13 12 -26 68 -45 54 -17 106 -21 106 -7 0 32 -158
79 -174 52z"/>
<path d="M12015 2007 c-16 -28 -40 -77 -53 -107 -13 -30 -33 -73 -43 -96 -24
-52 -25 -89 -3 -80 9 3 18 6 20 6 2 0 4 8 4 18 0 10 6 26 14 37 7 11 17 31 21
45 4 14 21 54 37 90 26 56 48 140 37 140 -2 0 -17 -24 -34 -53z"/>
<path d="M7484 1964 c10 -38 78 -198 87 -204 4 -3 12 -18 18 -33 14 -35 31
-35 31 1 0 24 -31 97 -70 162 -4 8 -17 33 -27 54 -24 49 -49 62 -39 20z"/>
<path d="M14270 1726 c0 -15 21 -26 51 -26 12 0 19 7 19 20 0 16 -7 20 -35 20
-23 0 -35 -5 -35 -14z"/>
<path d="M4944 1719 c-3 -6 0 -17 8 -26 17 -17 68 -8 68 12 0 23 -63 35 -76
14z"/>
<path d="M5472 1700 c-7 -11 -19 -20 -27 -20 -8 0 -15 -4 -15 -10 0 -5 -12
-13 -27 -16 -16 -4 -32 -10 -38 -14 -39 -27 -171 -60 -258 -66 -106 -6 -319
34 -413 77 -62 29 -98 22 -71 -15 26 -36 293 -105 467 -121 93 -9 140 -27 140
-53 0 -11 -7 -25 -16 -33 -25 -20 -74 -96 -74 -113 0 -23 37 -20 50 4 6 11 17
20 24 20 8 0 19 7 26 15 17 20 203 109 265 126 36 10 121 13 312 14 193 0 265
3 274 12 20 20 -53 45 -151 53 -47 3 -95 12 -107 18 -12 7 -32 12 -45 12 -13
0 -36 7 -52 15 -15 8 -34 15 -41 15 -7 0 -26 15 -42 33 -52 59 -156 86 -181
47z"/>
<path d="M13863 1699 c-17 -5 -34 -17 -37 -27 -10 -27 -76 -65 -141 -78 -33
-7 -87 -20 -120 -29 -33 -9 -81 -20 -108 -24 -56 -9 -74 -22 -53 -40 12 -10
60 -15 231 -22 6 0 79 0 163 1 144 1 157 -1 241 -29 82 -28 126 -52 239 -132
45 -33 80 -33 67 -1 -4 9 -12 41 -17 71 -7 43 -6 57 7 70 17 20 98 47 170 57
58 8 284 77 335 102 19 9 37 25 38 36 3 16 -1 18 -30 13 -18 -3 -73 -20 -123
-37 -151 -54 -333 -72 -459 -46 -74 16 -191 70 -211 99 -9 13 -30 18 -86 21
-41 2 -88 0 -106 -5z"/>
<path d="M5675 1670 c3 -5 13 -10 21 -10 8 0 14 5 14 10 0 6 -9 10 -21 10 -11
0 -17 -4 -14 -10z"/>
<path d="M7540 1644 c0 -8 5 -12 10 -9 6 4 8 11 5 16 -9 14 -15 11 -15 -7z"/>
<path d="M6575 1489 c-33 -5 -121 -11 -195 -14 -74 -3 -154 -10 -178 -16 -24
-5 -47 -7 -51 -5 -5 3 -35 1 -67 -5 -32 -6 -113 -12 -179 -14 -66 -2 -160 -12
-210 -22 -76 -16 -90 -22 -90 -39 0 -16 6 -19 40 -16 42 3 119 18 169 33 48
15 106 11 106 -6 0 -12 -20 -29 -94 -77 -44 -29 -161 -71 -215 -79 -36 -5 -85
-14 -109 -20 -31 -9 -49 -9 -65 -1 -35 17 -257 46 -268 35 -16 -16 24 -42 82
-54 69 -13 320 -13 423 0 89 12 158 41 261 111 66 45 131 72 200 83 46 8 364
-11 420 -26 43 -10 50 -16 53 -38 3 -23 -6 -33 -59 -70 -78 -55 -124 -117
-115 -154 13 -52 81 -78 268 -100 150 -19 205 -36 261 -82 67 -57 84 -61 110
-31 45 52 289 188 340 188 15 0 54 -7 86 -16 49 -14 81 -15 197 -8 l139 9 3
28 c2 16 -2 29 -10 31 -131 36 -383 123 -453 155 -22 10 -49 21 -60 24 -34 9
-108 37 -140 52 -16 7 -59 25 -95 38 -36 14 -114 46 -175 71 -102 42 -116 46
-190 44 -44 0 -107 -5 -140 -9z m441 -212 c12 -6 33 -20 47 -30 22 -16 68 -26
185 -43 68 -10 20 -38 -83 -48 -68 -7 -173 -31 -217 -49 -53 -22 -184 -40
-235 -32 -24 3 -84 6 -134 6 -49 0 -91 4 -94 9 -5 9 27 34 109 84 17 11 35 26
39 33 4 7 16 13 25 13 10 0 28 7 41 16 66 46 265 72 317 41z"/>
<path d="M6912 1241 c-11 -7 -10 -10 3 -15 24 -9 55 -7 55 3 0 8 -24 21 -38
21 -4 0 -13 -4 -20 -9z"/>
<path d="M12975 1469 c-196 -4 -337 -10 -363 -18 -52 -14 -250 -91 -311 -121
-24 -12 -85 -34 -135 -50 -50 -15 -147 -49 -216 -75 -69 -25 -142 -51 -163
-56 -21 -5 -45 -14 -55 -19 -9 -5 -33 -13 -52 -18 -25 -6 -35 -14 -35 -28 0
-17 10 -20 80 -26 44 -4 109 -11 144 -16 56 -8 72 -6 130 14 101 36 211 28
211 -15 0 -12 -7 -14 -68 -11 -53 2 -112 -17 -112 -36 0 -11 13 -14 53 -13
104 2 175 -6 195 -24 10 -9 24 -17 30 -17 13 0 99 -56 107 -71 13 -20 48 -7
91 35 58 58 124 79 321 104 99 13 162 26 179 37 14 9 23 19 20 22 -7 8 -118
13 -129 6 -18 -11 -153 -9 -222 3 -73 13 -131 32 -202 64 -62 29 -129 41 -183
34 -32 -4 -50 -2 -55 6 -11 18 -2 21 84 34 53 7 85 17 93 28 20 26 62 38 157
44 91 7 190 -7 226 -32 11 -8 27 -14 37 -14 16 0 146 -93 195 -139 12 -12 29
-21 38 -21 24 0 19 70 -11 125 -43 82 -24 116 88 155 118 41 276 19 405 -57
96 -57 205 -103 271 -114 121 -20 445 -5 478 22 17 14 18 36 2 42 -7 2 -26 0
-43 -5 -16 -4 -85 -15 -153 -24 -98 -13 -129 -13 -152 -4 -16 7 -34 9 -39 5
-6 -3 -26 -2 -44 3 -17 6 -50 15 -72 22 -22 6 -60 21 -85 33 -54 26 -155 105
-155 121 0 7 18 10 50 8 41 -3 48 -1 37 10 -8 8 -40 13 -85 14 -40 0 -99 6
-132 13 -33 7 -76 15 -95 19 -19 4 -179 4 -355 1z"/>
<path d="M13687 1403 c-16 -15 44 -37 186 -67 30 -7 21 33 -10 44 -16 6 -36
15 -45 20 -20 11 -121 14 -131 3z"/>
<path d="M5458 1333 c6 -2 18 -2 25 0 6 3 1 5 -13 5 -14 0 -19 -2 -12 -5z"/>
<path d="M12445 1220 c-3 -6 0 -12 7 -15 116 -38 197 -33 180 13 -5 15 -178
17 -187 2z"/>
<path d="M7331 994 c-24 -10 -31 -18 -24 -25 11 -11 113 19 113 33 0 13 -53 8
-89 -8z"/>
<path d="M9604 444 c-42 -38 -229 -137 -280 -148 -18 -4 -40 -16 -49 -26 -16
-18 -16 -19 10 -26 15 -4 64 -3 109 2 87 9 200 11 361 4 55 -2 143 0 195 4 54
5 121 4 155 -2 60 -10 105 -2 105 18 0 6 -8 13 -17 17 -61 20 -231 111 -279
148 -66 52 -78 49 -88 -23 -20 -138 -18 -135 -55 -144 -18 -5 -39 -7 -47 -4
-18 7 -34 70 -34 133 0 94 -21 106 -86 47z"/>
</g>
</svg>
